<svg width="30" height="31" viewBox="0 0 30 31" fill="none" xmlns="http://www.w3.org/2000/svg">
<path opacity="0.4" d="M5.90375 26.9591C5.8875 26.9591 5.8725 26.9591 5.855 26.9579C5.46125 26.9379 5.075 26.8529 4.7075 26.7041C2.89875 25.9691 2.02625 23.9029 2.76 22.0954L11.9113 6.06288C12.2263 5.49288 12.7038 5.01538 13.2863 4.69288C14.9925 3.74788 17.15 4.36913 18.0938 6.07413L27.185 21.9841C27.3875 22.4604 27.4738 22.8479 27.495 23.2429C27.5438 24.1879 27.2213 25.0941 26.5888 25.7954C25.9563 26.4966 25.0875 26.9104 24.1438 26.9579L5.99375 26.9591H5.90375Z" fill="white"/>
<path fill-rule="evenodd" clip-rule="evenodd" d="M13.9053 13.026C13.9053 12.4235 14.3965 11.9323 14.999 11.9323C15.6015 11.9323 16.0928 12.4235 16.0928 13.026V16.561C16.0928 17.1648 15.6015 17.6547 14.999 17.6547C14.3965 17.6547 13.9053 17.1648 13.9053 16.561V13.026ZM13.9053 20.8374C13.9053 20.2311 14.3965 19.7374 14.999 19.7374C15.6015 19.7374 16.0928 20.2249 16.0928 20.8236C16.0928 21.4399 15.6015 21.9311 14.999 21.9311C14.3965 21.9311 13.9053 21.4399 13.9053 20.8374Z" fill="white"/>
</svg>
