<svg width="27" height="27" viewBox="0 0 27 27" fill="none" xmlns="http://www.w3.org/2000/svg">
<path opacity="0.4" d="M17.9694 2.2356H21.7542C23.3217 2.2356 24.5918 3.51643 24.5918 5.09712V8.91392C24.5918 10.4946 23.3217 11.7754 21.7542 11.7754H17.9694C16.4019 11.7754 15.1318 10.4946 15.1318 8.91392V5.09712C15.1318 3.51643 16.4019 2.2356 17.9694 2.2356" fill="white"/>
<path fill-rule="evenodd" clip-rule="evenodd" d="M5.07364 2.2356H8.85847C10.4259 2.2356 11.696 3.51643 11.696 5.09712V8.91392C11.696 10.4946 10.4259 11.7754 8.85847 11.7754H5.07364C3.50619 11.7754 2.23608 10.4946 2.23608 8.91392V5.09712C2.23608 3.51643 3.50619 2.2356 5.07364 2.2356ZM5.0734 15.0517H8.85823C10.4257 15.0517 11.6958 16.3326 11.6958 17.9133V21.7301C11.6958 23.3097 10.4257 24.5916 8.85823 24.5916H5.0734C3.50595 24.5916 2.23584 23.3097 2.23584 21.7301V17.9133C2.23584 16.3326 3.50595 15.0517 5.0734 15.0517ZM21.7544 15.0517H17.9696C16.4021 15.0517 15.132 16.3326 15.132 17.9133V21.7301C15.132 23.3097 16.4021 24.5916 17.9696 24.5916H21.7544C23.3219 24.5916 24.592 23.3097 24.592 21.7301V17.9133C24.592 16.3326 23.3219 15.0517 21.7544 15.0517Z" fill="white"/>
</svg>
