<svg width="28" height="29" viewBox="0 0 28 29" fill="none" xmlns="http://www.w3.org/2000/svg">
<path d="M24.0265 11.7442H22.6566V10.4049C22.6566 9.83315 22.198 9.36694 21.633 9.36694C21.0691 9.36694 20.6094 9.83315 20.6094 10.4049V11.7442H19.2419C18.6768 11.7442 18.2183 12.2105 18.2183 12.7822C18.2183 13.354 18.6768 13.8202 19.2419 13.8202H20.6094V15.1607C20.6094 15.7325 21.0691 16.1987 21.633 16.1987C22.198 16.1987 22.6566 15.7325 22.6566 15.1607V13.8202H24.0265C24.5903 13.8202 25.05 13.354 25.05 12.7822C25.05 12.2105 24.5903 11.7442 24.0265 11.7442Z" fill="white"/>
<path d="M10.8171 17.9243C6.21043 17.9243 2.27734 18.6608 2.27734 21.6033C2.27734 24.5447 6.1865 25.3078 10.8171 25.3078C15.4226 25.3078 19.3568 24.5713 19.3568 21.6287C19.3568 18.6862 15.4477 17.9243 10.8171 17.9243Z" fill="white"/>
<path opacity="0.4" d="M10.8171 15.1219C13.9536 15.1219 16.4677 12.5753 16.4677 9.39843C16.4677 6.22156 13.9536 3.67383 10.8171 3.67383C7.68067 3.67383 5.1665 6.22156 5.1665 9.39843C5.1665 12.5753 7.68067 15.1219 10.8171 15.1219Z" fill="white"/>
</svg>
