<svg width="30" height="31" viewBox="0 0 30 31" fill="none" xmlns="http://www.w3.org/2000/svg">
<path opacity="0.4" d="M27.5 15.4998C27.5 22.4048 21.9037 27.9998 15 27.9998C8.09625 27.9998 2.5 22.4048 2.5 15.4998C2.5 8.59725 8.09625 2.99975 15 2.99975C21.9037 2.99975 27.5 8.59725 27.5 15.4998Z" fill="white"/>
<path fill-rule="evenodd" clip-rule="evenodd" d="M16.0879 16.2884C16.0879 16.8909 15.5966 17.3821 14.9941 17.3821C14.3916 17.3821 13.9004 16.8909 13.9004 16.2884V10.7634C13.9004 10.1609 14.3916 9.66963 14.9941 9.66963C15.5966 9.66963 16.0879 10.1609 16.0879 10.7634V16.2884ZM13.9066 20.2544C13.9066 19.6519 14.3954 19.1606 14.9941 19.1606C15.6104 19.1606 16.1004 19.6519 16.1004 20.2544C16.1004 20.8569 15.6104 21.3481 15.0066 21.3481C14.4004 21.3481 13.9066 20.8569 13.9066 20.2544Z" fill="white"/>
</svg>
