<svg width="30" height="31" viewBox="0 0 30 31" fill="none" xmlns="http://www.w3.org/2000/svg">
<path opacity="0.4" d="M20.425 2.9997H9.5875C5.35 2.9997 2.5 5.9747 2.5 10.3997V20.6122C2.5 25.0247 5.35 27.9997 9.5875 27.9997H20.425C24.6625 27.9997 27.5 25.0247 27.5 20.6122V10.3997C27.5 5.9747 24.6625 2.9997 20.425 2.9997Z" fill="white"/>
<path fill-rule="evenodd" clip-rule="evenodd" d="M13.9055 10.7366C13.9055 11.3391 14.3943 11.8304 14.993 11.8304C15.6093 11.8304 16.0993 11.3391 16.0993 10.7366C16.0993 10.1341 15.6093 9.64288 15.0055 9.64288C14.3993 9.64288 13.9055 10.1341 13.9055 10.7366ZM16.0869 14.7027C16.0869 14.1002 15.5957 13.6089 14.9932 13.6089C14.3907 13.6089 13.8994 14.1002 13.8994 14.7027V20.2277C13.8994 20.8302 14.3907 21.3214 14.9932 21.3214C15.5957 21.3214 16.0869 20.8302 16.0869 20.2277V14.7027Z" fill="white"/>
</svg>
