<svg width="38" height="38" viewBox="0 0 38 38" fill="none" xmlns="http://www.w3.org/2000/svg">
<path opacity="0.4" d="M25.4926 3.14896H12.2969C7.51046 3.14896 4.72363 5.95153 4.72363 10.7537V27.0181C4.72363 31.899 7.51046 34.6386 12.2969 34.6386H25.4926C30.3562 34.6386 33.0643 31.899 33.0643 27.0181V10.7537C33.0643 5.95153 30.3562 3.14896 25.4926 3.14896Z" fill="#0C1A49"/>
<path fill-rule="evenodd" clip-rule="evenodd" d="M12.7216 10.4703V10.486C12.043 10.486 11.4935 11.0371 11.4935 11.7141C11.4935 12.3911 12.043 12.9422 12.7216 12.9422H17.4277C18.1063 12.9422 18.6574 12.3911 18.6574 11.6968C18.6574 11.0213 18.1063 10.4703 17.4277 10.4703H12.7216ZM25.0655 20.0589H12.7216C12.043 20.0589 11.4935 19.5078 11.4935 18.8308C11.4935 18.1538 12.043 17.6011 12.7216 17.6011H25.0655C25.7426 17.6011 26.2936 18.1538 26.2936 18.8308C26.2936 19.5078 25.7426 20.0589 25.0655 20.0589ZM25.0658 27.2542H12.7218C12.2495 27.3172 11.7929 27.0811 11.541 26.6874C11.2891 26.2781 11.2891 25.7585 11.541 25.3649C11.7929 24.9555 12.2495 24.7351 12.7218 24.7823H25.0658C25.694 24.8453 26.1679 25.3806 26.1679 26.0262C26.1679 26.6544 25.694 27.1913 25.0658 27.2542Z" fill="#0C1A49"/>
</svg>
