<svg width="27" height="27" viewBox="0 0 27 27" fill="none" xmlns="http://www.w3.org/2000/svg">
<path opacity="0.4" d="M21.1599 10.1486C20.652 10.1486 19.9792 10.1374 19.1415 10.1374C17.0985 10.1374 15.4187 8.4465 15.4187 6.38437V2.76637C15.4187 2.48175 15.1904 2.25 14.9097 2.25H8.95908C6.18206 2.25 3.9375 4.52925 3.9375 7.32262V19.4445C3.9375 22.3751 6.289 24.75 9.19078 24.75H18.0509C20.8191 24.75 23.0625 22.4854 23.0625 19.6897V10.6549C23.0625 10.3691 22.8353 10.1385 22.5523 10.1396C22.0778 10.143 21.5063 10.1486 21.1599 10.1486" fill="white"/>
<path opacity="0.4" d="M18.0945 2.8882C17.7581 2.53832 17.1709 2.77907 17.1709 3.26395V6.23057C17.1709 7.47482 18.1958 8.49857 19.4389 8.49857C20.2241 8.50757 21.3131 8.50982 22.2379 8.50757C22.7115 8.50645 22.9523 7.94057 22.6238 7.59857C21.4369 6.36445 19.3118 4.1527 18.0945 2.8882" fill="white"/>
<path d="M16.1632 13.7658H14.2192V11.823C14.2192 11.3606 13.8445 10.9848 13.3822 10.9848C12.9198 10.9848 12.544 11.3606 12.544 11.823V13.7658H10.6012C10.1388 13.7658 9.76416 14.1416 9.76416 14.604C9.76416 15.0663 10.1388 15.4421 10.6012 15.4421H12.544V17.3838C12.544 17.8462 12.9198 18.222 13.3822 18.222C13.8445 18.222 14.2192 17.8462 14.2192 17.3838V15.4421H16.1632C16.6255 15.4421 17.0013 15.0663 17.0013 14.604C17.0013 14.1416 16.6255 13.7658 16.1632 13.7658" fill="white"/>
</svg>
