<svg width="65" height="66" viewBox="0 0 65 66" fill="none" xmlns="http://www.w3.org/2000/svg">
<path opacity="0.4" d="M44.9294 59.7281H19.8677C15.9819 59.9696 12.1659 58.6225 9.29449 55.998C6.66997 53.124 5.32282 49.308 5.56434 45.4249V20.3607C5.32282 16.4777 6.66728 12.6617 9.2918 9.78763C12.1659 7.16314 15.9819 5.816 19.8677 6.05752H44.9294C48.8098 5.816 52.6232 7.16045 55.4946 9.78494C58.1164 12.6617 59.4662 16.475 59.2355 20.3607V45.4249C59.4743 49.308 58.1298 53.124 55.5053 55.998C52.6312 58.6225 48.8152 59.9696 44.9294 59.7281Z" fill="#0C1A49"/>
<path d="M45.9777 28.5882L28.375 46.2784C27.4595 47.1695 26.2563 47.6674 25.0009 47.6674H18.8543C18.5143 47.6674 18.2004 47.5364 17.965 47.3005C17.7296 47.0647 17.625 46.7502 17.625 46.4095L17.7819 40.1982C17.8081 38.9665 18.305 37.8133 19.1682 36.9485L31.6444 24.4473C31.8537 24.2377 32.2198 24.2377 32.4291 24.4473L36.8049 28.8057C37.0926 29.0914 37.5111 29.2774 37.9558 29.2774C38.9235 29.2774 39.682 28.4912 39.682 27.5477C39.682 27.076 39.4989 26.6567 39.2112 26.3422C39.1328 26.2373 34.9662 22.0886 34.9662 22.0886C34.7046 21.8266 34.7046 21.381 34.9662 21.1189L36.7186 19.3368C38.3402 17.7119 40.9558 17.7119 42.5774 19.3368L45.9777 22.7438C47.5732 24.3425 47.5732 26.9633 45.9777 28.5882Z" fill="#0C1A49"/>
</svg>
