<svg width="69" height="67" viewBox="0 0 69 67" fill="none" xmlns="http://www.w3.org/2000/svg">
<path opacity="0.4" d="M62.0343 23.8702H54.6795C51.8038 23.8702 49.8696 25.8891 49.8696 28.8921V35.8228C49.8696 38.8173 51.8038 40.8363 54.6795 40.8363H62.0343C64.9101 40.8363 66.8357 38.8173 66.8357 35.8228V28.8921C66.8357 25.8891 64.9101 23.8702 62.0343 23.8702Z" fill="#0C1A49"/>
<path d="M57.3456 35.1086C57.1555 35.1086 56.9655 35.0365 56.8205 34.8914L54.8074 32.8784C54.5173 32.5883 54.5173 32.1183 54.8074 31.8291C55.0976 31.5389 55.5667 31.5381 55.8568 31.8282L57.3456 33.317L60.8474 29.8152C61.1375 29.5251 61.6066 29.5251 61.8967 29.8152C62.1868 30.1053 62.1868 30.5753 61.8967 30.8654L57.8707 34.8914C57.7256 35.0365 57.5356 35.1086 57.3456 35.1086Z" fill="#0C1A49"/>
<path d="M33.3202 42.266C21.5817 42.266 11.5552 44.1167 11.5552 51.5196C11.5552 58.9252 21.5191 60.8412 33.3202 60.8412C45.0586 60.8412 55.0852 58.9932 55.0852 51.5876C55.0852 44.182 45.124 42.266 33.3202 42.266Z" fill="#0C1A49"/>
<path opacity="0.4" d="M33.3204 35.2145C41.3166 35.2145 47.7234 28.805 47.7234 20.8115C47.7234 12.8181 41.3166 6.40858 33.3204 6.40858C25.327 6.40858 18.9175 12.8181 18.9175 20.8115C18.9175 28.805 25.327 35.2145 33.3204 35.2145Z" fill="#0C1A49"/>
</svg>
