<svg width="38" height="38" viewBox="0 0 38 38" fill="none" xmlns="http://www.w3.org/2000/svg">
<path opacity="0.4" d="M26.6167 8.05322H21.9829C20.8285 8.06085 19.7326 7.54735 19.001 6.65612L17.4751 4.5465C16.7558 3.64746 15.6599 3.13155 14.5072 3.1494H11.2313C5.35157 3.1494 3.18166 6.60024 3.18166 12.4681V18.8109C3.17434 19.5084 34.6644 19.5075 34.6664 18.8109V16.9667C34.6944 11.0989 32.5805 8.05322 26.6167 8.05322Z" fill="#0C1A49"/>
<path fill-rule="evenodd" clip-rule="evenodd" d="M32.8325 10.3026C33.3362 10.8915 33.7255 11.5691 33.9804 12.3004C34.482 13.8035 34.7143 15.3831 34.6664 16.9667V25.2375C34.6644 25.9342 34.6129 26.6298 34.5124 27.3192C34.321 28.5359 33.893 29.7034 33.2525 30.7561C32.9581 31.2646 32.6006 31.734 32.1885 32.1532C30.323 33.8653 27.8458 34.7565 25.3148 34.6261H12.5193C9.98418 34.7555 7.50298 33.8647 5.63155 32.1532C5.22438 31.7332 4.87164 31.2638 4.58159 30.7561C3.94487 29.7042 3.52596 28.5355 3.34964 27.3192C3.23752 26.631 3.18134 25.9348 3.18164 25.2375V16.9667C3.18137 16.276 3.21875 15.5857 3.29364 14.899C3.30938 14.7785 3.333 14.66 3.35638 14.5427C3.39534 14.3472 3.43363 14.1551 3.43363 13.963C3.57574 13.1343 3.83498 12.3299 4.2036 11.5739C5.29556 9.24077 7.53547 8.05324 11.2033 8.05324H26.6027C28.6571 7.89435 30.6961 8.5128 32.3145 9.78564C32.5009 9.94368 32.6741 10.1166 32.8325 10.3026ZM11.0075 24.4692H26.8549H26.8829C27.2306 24.4843 27.5699 24.3598 27.8251 24.1236C28.0802 23.8873 28.23 23.559 28.2409 23.2118C28.2605 22.9066 28.1601 22.6059 27.9609 22.3735C27.7318 22.0613 27.3687 21.8749 26.9809 21.8706H11.0075C10.2885 21.8706 9.70559 22.4523 9.70559 23.1699C9.70559 23.8875 10.2885 24.4692 11.0075 24.4692Z" fill="#0C1A49"/>
</svg>
