<svg width="69" height="69" viewBox="0 0 69 69" fill="none" xmlns="http://www.w3.org/2000/svg">
<path opacity="0.4" d="M53.8109 26.4746C52.5342 26.4746 50.8431 26.4464 48.7376 26.4464C43.6027 26.4464 39.3805 22.1964 39.3805 17.0132V7.91938C39.3805 7.20398 38.8093 6.62148 38.101 6.62148H23.1442C16.1642 6.62148 10.5225 12.3504 10.5225 19.3715V49.8398C10.5225 57.2059 16.4329 63.1752 23.7266 63.1752H45.9994C52.9542 63.1752 58.5931 57.483 58.5931 50.4562V27.7471C58.5931 27.0289 58.0247 26.4492 57.3136 26.452C56.118 26.4605 54.6845 26.4746 53.8109 26.4746Z" fill="#0C1A49"/>
<path opacity="0.4" d="M46.1067 8.22562C45.2612 7.34621 43.7852 7.95134 43.7852 9.17007V16.6267C43.7852 19.7541 46.3612 22.3273 49.4886 22.3273C51.4595 22.3499 54.1967 22.3556 56.521 22.3499C57.7115 22.3471 58.3166 20.9248 57.4909 20.0651C54.5077 16.9632 49.1662 11.4039 46.1067 8.22562Z" fill="#0C1A49"/>
<path fill-rule="evenodd" clip-rule="evenodd" d="M26.0014 33.1666H35.5732C36.7353 33.1666 37.6798 32.225 37.6798 31.0628C37.6798 29.9007 36.7353 28.9562 35.5732 28.9562H26.0014C24.8393 28.9562 23.8976 29.9007 23.8976 31.0628C23.8976 32.225 24.8393 33.1666 26.0014 33.1666ZM26.0013 47.2887H41.3952C42.5573 47.2887 43.5018 46.347 43.5018 45.1849C43.5018 44.0227 42.5573 43.0782 41.3952 43.0782H26.0013C24.8391 43.0782 23.8975 44.0227 23.8975 45.1849C23.8975 46.347 24.8391 47.2887 26.0013 47.2887Z" fill="#0C1A49"/>
</svg>
