<svg width="70" height="71" viewBox="0 0 70 71" fill="none" xmlns="http://www.w3.org/2000/svg">
<path d="M27.1844 44.0294C15.6958 44.0294 5.8833 45.8041 5.8833 52.8974C5.8833 59.9962 15.6334 61.832 27.1844 61.832C38.673 61.832 48.4856 60.0573 48.4856 52.964C48.4856 45.8652 38.7354 44.0294 27.1844 44.0294Z" fill="#0C1A49"/>
<path opacity="0.4" d="M27.1842 37.2677C35.0087 37.2677 41.2791 31.1271 41.2791 23.4645C41.2791 15.8019 35.0087 9.66121 27.1842 9.66121C19.3626 9.66121 13.0894 15.8019 13.0894 23.4645C13.0894 31.1271 19.3626 37.2677 27.1842 37.2677Z" fill="#0C1A49"/>
<path opacity="0.4" d="M46.9626 23.7147C46.9626 27.6168 45.7658 31.2579 43.6672 34.2824C43.4488 34.5935 43.6417 35.0128 44.0217 35.0795C44.5492 35.1656 45.0909 35.2183 45.6439 35.2295C51.1457 35.3711 56.0832 31.9022 57.4473 26.6781C59.4693 18.9266 53.5365 11.9667 45.9785 11.9667C45.1589 11.9667 44.3734 12.05 43.6076 12.2027C43.5027 12.2249 43.3893 12.2749 43.3326 12.3638C43.2588 12.4777 43.3127 12.6249 43.3864 12.7221C45.6581 15.841 46.9626 19.6376 46.9626 23.7147Z" fill="#0C1A49"/>
<path d="M63.2098 44.9326C62.203 42.8301 59.7726 41.3887 56.0744 40.6805C54.3303 40.2639 49.6056 39.6723 45.2126 39.7556C45.1474 39.764 45.1105 39.8084 45.1048 39.8362C45.0963 39.8806 45.1162 39.9473 45.2013 39.9945C47.2318 40.9777 55.079 45.2547 54.0921 54.2754C54.0495 54.6698 54.37 55.0031 54.7699 54.9476C56.7012 54.6782 61.6699 53.6311 63.2098 50.3761C64.0634 48.6542 64.0634 46.6545 63.2098 44.9326Z" fill="#0C1A49"/>
</svg>
