<svg width="24" height="23" viewBox="0 0 24 23" fill="none" xmlns="http://www.w3.org/2000/svg">
<path d="M22.0265 8.74425H20.6566V7.40494C20.6566 6.83315 20.198 6.36694 19.633 6.36694C19.0691 6.36694 18.6094 6.83315 18.6094 7.40494V8.74425H17.2419C16.6768 8.74425 16.2183 9.21046 16.2183 9.78224C16.2183 10.354 16.6768 10.8202 17.2419 10.8202H18.6094V12.1607C18.6094 12.7325 19.0691 13.1987 19.633 13.1987C20.198 13.1987 20.6566 12.7325 20.6566 12.1607V10.8202H22.0265C22.5903 10.8202 23.05 10.354 23.05 9.78224C23.05 9.21046 22.5903 8.74425 22.0265 8.74425" fill="white" fill-opacity="0.25"/>
<path d="M8.81708 14.9243C4.21043 14.9243 0.277344 15.6608 0.277344 18.6033C0.277344 21.5447 4.1865 22.3078 8.81708 22.3078C13.4226 22.3078 17.3568 21.5713 17.3568 18.6287C17.3568 15.6862 13.4477 14.9243 8.81708 14.9243" fill="white" fill-opacity="0.25"/>
<path opacity="0.4" d="M8.81711 12.1219C11.9536 12.1219 14.4677 9.5753 14.4677 6.39843C14.4677 3.22156 11.9536 0.673828 8.81711 0.673828C5.68067 0.673828 3.1665 3.22156 3.1665 6.39843C3.1665 9.5753 5.68067 12.1219 8.81711 12.1219" fill="white" fill-opacity="0.25"/>
</svg>
