<svg width="349" height="265" viewBox="0 0 349 265" fill="none" xmlns="http://www.w3.org/2000/svg">
<g clip-path="url(#clip0_208_242)">
<path d="M265.041 36.8852C261.92 25.5048 287.096 15.7459 293.707 24.9106C294.626 23.6076 298.023 22.8162 299.582 23.2159C301.141 23.6156 302.452 24.6148 303.731 25.5821C305.49 26.933 307.312 28.3319 308.391 30.2744C309.478 32.2088 309.646 34.8468 308.184 36.5255C307.024 37.8604 303.603 38.7237 301.86 39.0755C300.645 39.3233 299.622 39.5231 298.743 39.667C297.944 38.5163 297.576 37.121 297.704 35.7261C297.112 36.1253 296.616 36.6506 296.251 37.2642C295.886 37.8779 295.661 38.5647 295.593 39.2753C295.569 39.5711 305.418 75.8067 305.418 75.8067C304.234 76.4801 302.99 77.0395 301.701 77.4773C299.15 73.5796 297.197 69.3225 295.905 64.8472C295.608 67.8397 295.646 70.856 296.017 73.8402C296.215 75.5135 296.497 77.1757 296.864 78.8203C285.162 81.3463 267.559 80.515 259.901 69.7714C259.9 69.7269 259.899 69.6825 259.898 69.638C259.892 69.2139 259.738 68.8051 259.464 68.4816C259.19 68.1581 258.812 67.9399 258.394 67.8646C257.977 67.7893 257.546 67.8614 257.176 68.0686C256.806 68.2758 256.52 68.6052 256.366 69.0004C256.18 69.4744 256.009 69.8847 255.857 70.211C253.626 62.2333 256.512 53.0005 265.041 36.8852Z" fill="#2F2E41"/>
<path d="M245.127 227.681V228.054C245.112 227.93 245.112 227.805 245.127 227.681Z" fill="#2F2E41"/>
<path d="M256.587 163.276C256.885 163.195 257.188 163.136 257.494 163.1C257.143 163.157 256.84 163.216 256.587 163.276Z" fill="#2F2E41"/>
<path d="M256.322 163.343C256.403 163.321 256.492 163.298 256.587 163.276C256.499 163.299 256.413 163.316 256.322 163.343Z" fill="#2F2E41"/>
<path d="M340.994 264.973H298.097C297.485 264.485 297.06 263.8 296.893 263.036C296.725 262.271 296.826 261.471 297.179 260.772C298.35 258.085 296.054 255.629 296.054 255.629C295.275 254.715 294.733 253.624 294.476 252.451C294.22 251.278 294.257 250.06 294.584 248.904C295.721 244.935 291.267 233.731 291.267 233.731C291.267 233.731 288.866 248.198 285.923 264.973H245.127C244.443 263.809 244.083 262.483 244.083 261.134C244.083 259.784 244.443 258.458 245.127 257.294C247.504 253.263 245.127 252.49 245.127 252.49C245.127 252.49 242.749 247.979 245.127 244.703C247.504 241.428 245.127 228.054 245.127 228.054C245.216 228.645 245.894 227.57 246.937 225.316C248.524 221.887 250.95 215.719 253.402 208.559C255.154 203.449 256.921 197.826 258.397 192.328H258.401C258.788 190.884 259.155 189.453 259.501 188.035C260.178 185.254 260.759 182.552 261.2 180.015C262.156 174.55 262.472 169.855 261.737 166.802C261.128 164.261 259.795 162.86 257.494 163.1C258.727 162.896 260.533 162.702 262.758 162.519C263.16 162.487 263.576 162.455 264.006 162.419C280.605 161.165 316.22 160.445 316.22 160.445L327.128 179.979L340.943 204.724C340.943 204.724 340.567 237.92 340.994 264.973Z" fill="#2F2E41"/>
<path d="M295.207 76.0121L270.075 70.6809L265.085 80.7254L248.28 90.4544C248.28 90.4544 259.112 134.744 259.051 140.974C258.894 156.788 233.589 192.241 252.702 189.513C271.816 186.786 275.698 175.362 281.834 177.168C287.368 178.797 294.125 186.045 298.649 180.861C303.172 175.678 304.765 181.663 307.626 181.87C308.985 181.969 308.167 175.325 311.587 182.077C315.007 188.828 333.144 179.74 326.997 173.593C316.759 163.355 314.678 87.8876 314.678 87.8876L303.282 84.381L295.207 76.0121Z" fill="#E6E6E6"/>
<path d="M247.805 236.854C248.815 235.65 249.315 234.1 249.199 232.532C249.083 230.965 248.36 229.505 247.184 228.463C246.941 228.255 246.682 228.067 246.409 227.902L250.611 207.278L240.896 201.464L238.194 230.338C237.597 231.525 237.408 232.876 237.659 234.18C237.91 235.485 238.586 236.67 239.581 237.551C240.152 238.046 240.815 238.424 241.532 238.664C242.25 238.903 243.007 238.998 243.761 238.945C244.515 238.892 245.252 238.69 245.928 238.352C246.604 238.014 247.208 237.546 247.703 236.975C247.738 236.935 247.772 236.895 247.805 236.854Z" fill="#A0616A"/>
<path d="M277.968 128.148C277.907 127.485 277.061 127.184 275.889 126.768C274.712 126.406 273.593 125.876 272.567 125.195C269.972 123.321 270.994 121.361 272.406 118.651C272.682 118.125 272.968 117.576 273.237 117.007C274.036 115.319 272.764 108.356 269.449 96.3073C268.428 92.5982 268.431 89.9785 267.725 88.2404C267.023 86.5024 265.615 85.6459 261.777 85.4667C257.137 85.2325 252.595 86.8472 249.144 89.957C249.051 90.0394 248.954 90.129 248.861 90.215C248.685 90.3799 248.513 90.5483 248.345 90.7203C245.154 93.9305 243.328 98.2502 243.249 102.776L243.231 103.546L242.439 140.358L240.214 172.661L237.146 217.159L239.418 217.27L248.485 217.722L249.585 217.776L252.194 206.831L255.333 193.661L256.487 188.823L260.067 173.815L261.737 166.802L262.759 162.519L263.174 160.77L265.203 152.27C265.249 152.091 269.915 133.681 275.294 130.603C277.301 129.456 278.025 128.79 277.968 128.148Z" fill="#E6E6E6"/>
<path d="M338.321 236.636C337.187 235.547 336.524 234.059 336.471 232.488C336.418 230.918 336.98 229.388 338.037 228.226C338.256 227.993 338.493 227.778 338.747 227.585L332.355 207.532L341.388 200.708L347.176 229.125C347.898 230.24 348.23 231.563 348.12 232.887C348.011 234.212 347.467 235.462 346.572 236.445C346.057 236.999 345.439 237.446 344.751 237.761C344.064 238.076 343.321 238.252 342.566 238.28C341.81 238.308 341.056 238.186 340.348 237.923C339.639 237.66 338.989 237.259 338.435 236.745C338.396 236.709 338.358 236.672 338.321 236.636Z" fill="#A0616A"/>
<path d="M342.74 193.124C342.74 193.124 335.694 168.334 337.843 165.651C339.992 162.967 333.646 162.443 336.38 157.445C339.115 152.447 335.341 151.611 335.341 151.611L333.292 140.12L329.631 111.894L329.519 111.055L328.454 102.843C328.157 100.498 327.39 98.2363 326.198 96.1942C325.007 94.1521 323.416 92.3713 321.52 90.9581C321.423 90.884 321.325 90.8128 321.226 90.7416C320.775 90.4171 320.314 90.1164 319.844 89.8395C316.329 87.7659 312.201 86.9819 308.171 87.6223C300.576 88.8051 302.94 91.6371 301.708 99.2242C299.707 111.56 299.187 118.618 300.163 120.213C300.492 120.75 300.838 121.263 301.167 121.757C302.863 124.302 304.088 126.138 301.709 128.285C300.761 129.069 299.706 129.715 298.576 130.202C297.457 130.743 296.647 131.132 296.658 131.798C296.671 132.443 297.461 133.025 299.579 133.949C302.144 135.071 304.899 139.316 307.156 143.652C308.947 147.147 310.544 150.738 311.94 154.408L331.337 208.963L334.501 217.859L335.592 217.687L344.555 216.266L346.802 215.91L342.74 193.124Z" fill="#E6E6E6"/>
<path d="M284.604 70.3043C295.928 70.3043 305.108 61.1242 305.108 49.8C305.108 38.4757 295.928 29.2957 284.604 29.2957C273.28 29.2957 264.1 38.4757 264.1 49.8C264.1 61.1242 273.28 70.3043 284.604 70.3043Z" fill="#A0616A"/>
<path d="M253.85 38.4843C250.729 27.1039 275.904 17.345 282.516 26.5097C283.435 25.2067 286.832 24.4153 288.391 24.815C289.95 25.2147 291.261 26.2139 292.54 27.1812C294.298 28.5321 296.121 29.931 297.2 31.8735C298.287 33.808 298.455 36.4459 296.992 38.1246C295.833 39.4595 292.412 40.3229 290.669 40.6746C289.454 40.9224 288.431 41.1222 287.552 41.2661C286.753 40.1154 286.385 38.7202 286.512 37.3252C285.921 37.7245 285.424 38.2497 285.06 38.8634C284.695 39.477 284.47 40.1638 284.402 40.8744C284.378 41.1702 294.226 77.4058 294.226 77.4058C293.043 78.0792 291.799 78.6386 290.509 79.0764C287.959 75.1787 286.006 70.9216 284.714 66.4464C284.417 69.4389 284.455 72.4551 284.826 75.4393C285.023 77.1127 285.306 78.7749 285.673 80.4194C273.97 82.9454 256.368 82.1141 248.71 71.3705C248.709 71.3261 248.708 71.2816 248.706 71.2371C248.7 70.813 248.547 70.4042 248.273 70.0807C247.999 69.7572 247.62 69.5391 247.203 69.4637C246.786 69.3884 246.355 69.4605 245.985 69.6677C245.615 69.8749 245.329 70.2044 245.175 70.5996C244.989 71.0736 244.818 71.4838 244.665 71.8102C242.435 63.8324 245.321 54.5996 253.85 38.4843Z" fill="#2F2E41"/>
<path d="M73.8305 24.9114C73.4495 25.7993 61.7015 25.7041 61.1634 26.4948C57.015 32.5987 71.9694 58.5695 67.8209 64.6814L67.243 65.3702C68.5964 64.7465 69.8964 64.013 71.1302 63.1772C71.241 60.6755 71.3519 58.1658 71.4706 55.664C72.7132 57.2536 73.7161 59.0167 74.4474 60.8971C75.4132 60.2163 76.2056 58.9541 80.3455 56.4716C82.0215 54.6304 83.9536 53.04 86.0825 51.749L73.8305 24.9114Z" fill="#2F2E41"/>
<path d="M82.3614 74.9366C81.065 74.0921 79.5859 73.5689 78.0468 73.4105C76.5077 73.2521 74.953 73.463 73.5117 74.0257C72.0704 74.5885 70.7842 75.4868 69.7596 76.6462C68.735 77.8056 68.0017 79.1926 67.6205 80.6921L49.7677 127.209L19.0809 109.787C18.9461 107.785 18.1807 105.876 16.8943 104.336C15.6079 102.795 13.8666 101.702 11.9203 101.212C9.97389 100.722 7.92242 100.861 6.06006 101.61C4.1977 102.358 2.62014 103.677 1.55364 105.377C0.487138 107.077 -0.0135169 109.071 0.123484 111.074C0.260486 113.076 1.02811 114.984 2.31625 116.523C3.60439 118.062 5.34686 119.153 7.29377 119.641C9.24068 120.129 11.292 119.987 13.1535 119.237C19.6159 126.134 47.6327 154.413 59.2315 143.364C68.9808 134.076 83.0503 98.0819 86.437 85.6523C86.9796 83.6647 86.8772 81.5562 86.1448 79.6305C85.4124 77.7048 84.0877 76.0613 82.3614 74.9366Z" fill="#FFB6B6"/>
<path d="M48.8388 145.313L54.4726 170.777L95.6688 174.503L99.4548 152.331L48.8388 145.313Z" fill="#FFB6B6"/>
<path d="M111.767 210.612C111.748 210.977 111.725 211.338 111.699 211.703C111.304 216.979 110.852 223.065 110.363 229.733C109.591 240.316 108.73 252.366 107.86 264.973H21.451L38.2092 214.602C38.2092 214.602 44.9758 210.877 41.5308 204.619C38.0859 198.36 44.8643 203.347 44.9273 194.41C44.9904 185.472 51.0645 175.963 51.0645 175.963L52.0618 162.43L52.63 162.441L97.5978 163.19L98.4182 163.205L99.7993 174.823C108.185 184.802 112.463 197.596 111.767 210.612Z" fill="#2F2E41"/>
<path d="M74.5507 62.5961L95.056 61.5398L104.58 76.5891C104.58 76.5891 122.5 79.5851 121.258 100.702C120.016 121.818 99.4547 140.348 99.4547 140.348L100.334 137.334L98.8072 141.696L99.0029 144.145L101.085 146.739L101.3 149.421L99.4547 153.665C99.6946 154.05 99.8219 154.494 99.8222 154.947C99.8225 155.4 99.6958 155.845 99.4564 156.229C99.217 156.614 98.8745 156.924 98.4678 157.125C98.0611 157.325 97.6064 157.407 97.1554 157.362L67.5268 154.392C66.8523 152.537 66.311 150.316 63.6071 154.013L60.8161 153.742L49.2136 152.618L48.5307 150.13C48.1427 148.717 48.0822 147.233 48.3539 145.793C48.6256 144.352 49.2223 142.993 50.0986 141.818C49.0908 138.662 49.3547 135.238 50.8342 132.274L50.8897 132.162L52.1218 131.135C52.1218 131.135 38.642 110.884 54.1165 95.6306L60.3272 85.0724L67.2764 76.5939L74.5507 62.5961Z" fill="#0C1A49"/>
<path d="M79.6541 53.7124C90.3931 53.7124 99.0988 45.0067 99.0988 34.2677C99.0988 23.5287 90.3931 14.823 79.6541 14.823C68.9151 14.823 60.2094 23.5287 60.2094 34.2677C60.2094 45.0067 68.9151 53.7124 79.6541 53.7124Z" fill="#FFB6B6"/>
<path d="M94.4224 62.2791C92.839 60.9561 91.7368 59.147 91.2873 57.1331C90.9277 59.5783 91.0216 62.0689 91.5644 64.48C90.5115 65.2717 89.4902 66.0238 88.5243 66.7047C87.793 64.8243 86.7901 63.0612 85.5475 61.4716C85.4288 63.9733 85.3179 66.483 85.2071 68.9847C83.9734 69.8206 82.6733 70.554 81.3199 71.1777L81.8978 70.489C86.0463 64.3771 75.311 53.1272 79.4594 47.0232C80.6232 45.3131 75.3664 31.799 71.3604 31.1894C67.7978 30.651 67.9482 31.6802 64.4965 32.4323C64.138 30.9374 63.5815 29.497 62.8418 28.1493C63.0387 29.651 62.9933 31.1746 62.7072 32.6619C61.4801 32.7094 60.5147 31.9275 59.208 31.7277C50.8714 30.4531 51.7186 21.4358 54.0382 18.5777C56.3658 15.7277 64.0927 14.8726 67.6553 13.9463C67.9799 13.6297 68.7162 13.8276 69.0408 13.5267C75.8683 7.27828 84.9997 6.24349 93.2171 9.01295C101.98 11.9664 107.444 17.6825 110.248 26.4947L111.053 33.5466C111.774 35.8141 110.866 46.3642 110.248 48.662C107.846 57.5939 102.728 53.1351 94.4224 62.2791Z" fill="#2F2E41"/>
<path d="M122.774 154.403L122.009 94.7827C121.969 92.2569 120.938 89.8481 119.137 88.076C117.337 86.304 114.912 85.3108 112.386 85.3108C111.079 85.3108 109.786 85.5769 108.586 86.093C107.385 86.6091 106.302 87.3643 105.403 88.3125C104.504 89.2607 103.807 90.3822 103.355 91.6085C102.904 92.8348 102.706 94.1402 102.776 95.4452L105.469 157.351L105.521 195.037C103.933 195.71 102.591 196.856 101.677 198.318C100.763 199.781 100.322 201.489 100.413 203.211C100.504 204.933 101.122 206.586 102.185 207.944C103.248 209.302 104.703 210.3 106.353 210.803C108.002 211.305 109.767 211.288 111.406 210.752C113.045 210.217 114.48 209.19 115.516 207.811C116.551 206.432 117.137 204.767 117.193 203.044C117.25 201.32 116.774 199.621 115.831 198.177L122.774 154.403Z" fill="#FFB6B6"/>
<path d="M223.13 231.537C223.13 231.537 221.947 252.83 221.403 264.974H180.643C179.805 253.923 179.522 245.803 179.522 245.803L177.292 264.974H136.092L133.538 229.469L145.881 198.872C145.881 198.872 212.772 194.233 218.977 200.118C225.178 205.999 223.13 231.537 223.13 231.537Z" fill="#2F2E41"/>
<path d="M187.088 52.4157C199.384 52.4157 209.351 42.4478 209.351 30.1518C209.351 17.8558 199.384 7.88794 187.088 7.88794C174.792 7.88794 164.824 17.8558 164.824 30.1518C164.824 42.4478 174.792 52.4157 187.088 52.4157Z" fill="#FFB6B6"/>
<path d="M213.038 22.9174C210.752 23.9601 209.27 31.5121 207.472 29.7565C205.675 28.0008 205.795 25.716 203.372 25.0681C201.415 24.5426 199.309 25.1431 197.524 26.0903C197.205 26.2574 196.896 26.4391 196.595 26.6199C196.396 26.487 196.198 26.3621 195.986 26.2468C194.389 25.3923 192.526 25.1827 190.779 25.6611C192.159 26.1234 193.359 27.0077 194.209 28.1892C193.612 28.5896 193.007 28.9909 192.388 29.3466C187.217 32.3305 179.859 25.842 174.417 23.4045C177.826 29.802 176.147 32.4515 173.187 39.068L173.085 39.4447C173.253 37.7865 168.121 36.5506 168.419 38.885C168.63 40.5424 170.065 44.2263 170.868 45.6896C165.146 39.0729 161.235 30.9759 162.06 22.6231C162.24 20.8684 162.186 19.0171 163.091 17.4941C163.997 15.979 165.885 14.9158 167.556 15.4936C167.415 12.8298 167.998 10.1774 169.243 7.81844C170.489 5.45947 172.35 3.48208 174.63 2.09648C176.909 0.710892 179.521 -0.0311059 182.189 -0.0506299C184.856 -0.0701539 187.479 0.633531 189.779 1.98561C191.915 3.23939 193.699 5.01264 195.658 6.54222C197.616 8.07178 199.874 9.40504 202.357 9.53132C203.932 9.60729 205.647 9.22269 207 10.0386C208.568 10.9854 208.836 12.9676 209.072 14.8749C207.673 15.0128 206.348 15.5644 205.264 16.4594C206.711 16.3118 208.168 16.6242 209.427 17.3522C209.451 17.363 209.474 17.376 209.495 17.3909C210.324 20.5432 210.239 21.242 213.038 22.9174Z" fill="#2F2E41"/>
<path d="M136.191 209.644C155.151 187.451 148.747 159.224 141.222 130.73L142.654 88.6363C142.724 86.5715 143.29 84.5538 144.304 82.7538C145.318 80.9537 146.751 79.4241 148.48 78.2942L167.836 65.6494L175.369 54.7573L196.135 56.8339L207.65 69.0118L220.396 78.7427C223.597 81.1859 226.032 84.4933 227.415 88.2748C228.798 92.0563 229.071 96.1544 228.201 100.086L216.003 155.249C216.003 155.249 221.105 183.845 217.992 187.004C214.879 190.162 206.858 187.005 213.219 190.551C220.852 194.805 227.793 194.02 223.93 197.883C220.067 201.746 224.956 207.117 224.956 207.117L136.191 209.644Z" fill="#0C1A49"/>
<path d="M144.297 241.897L147.458 219.378L134.846 215.778L132.351 239.705C131.308 240.662 130.552 241.891 130.168 243.254C129.785 244.618 129.789 246.061 130.181 247.422C130.573 248.782 131.336 250.007 132.386 250.958C133.435 251.908 134.729 252.547 136.122 252.803C137.515 253.059 138.951 252.921 140.27 252.404C141.589 251.888 142.737 251.015 143.587 249.882C144.436 248.748 144.953 247.401 145.078 245.99C145.204 244.58 144.933 243.162 144.297 241.897Z" fill="#FFB6B6"/>
<path d="M168.309 69.7087C168.309 69.7087 132.409 81.3928 131.553 89.9419C130.697 98.491 130.981 103.724 127.192 137.934L127.392 230.086C127.392 230.086 151.46 235.239 148.992 229.73C146.523 224.22 147.385 221.628 147.385 221.628C147.385 221.628 152.545 219.592 151.253 213.122C149.961 206.653 156.439 174.594 156.439 174.594L160.528 117.098L168.309 69.7087Z" fill="#0C1A49"/>
<path d="M212.573 240.704L210.891 218.027L223.712 215.259L224.637 239.298C225.616 240.321 226.29 241.597 226.584 242.982C226.877 244.368 226.778 245.808 226.298 247.14C225.819 248.472 224.977 249.644 223.867 250.524C222.758 251.404 221.425 251.957 220.018 252.121C218.612 252.285 217.187 252.054 215.905 251.452C214.623 250.851 213.534 249.904 212.76 248.718C211.987 247.532 211.559 246.154 211.526 244.738C211.493 243.322 211.856 241.925 212.573 240.704Z" fill="#FFB6B6"/>
<path d="M199.869 67.3147C199.869 67.3147 234.927 81.3203 235.223 89.9071C235.518 98.4939 234.893 103.698 236.437 138.082L230.215 230.024C230.215 230.024 205.861 233.593 208.684 228.256C211.507 222.92 210.817 220.277 210.817 220.277C210.817 220.277 205.801 217.907 207.513 211.536C209.225 205.166 204.856 172.752 204.856 172.752L204.535 115.111L199.869 67.3147Z" fill="#0C1A49"/>
</g>
<defs>
<clipPath id="clip0_208_242">
<rect width="348.036" height="264.974" fill="white" transform="translate(0.10498)"/>
</clipPath>
</defs>
</svg>
