<svg width="515" height="382" viewBox="0 0 515 382" fill="none" xmlns="http://www.w3.org/2000/svg">
<g clip-path="url(#clip0_143_102)">
<path d="M48.6272 380.011H157.736V376.663C157.736 373.756 156.581 370.968 154.526 368.913C152.47 366.857 149.682 365.702 146.775 365.702H59.5884C56.6813 365.702 53.8933 366.857 51.8376 368.913C49.782 370.968 48.6272 373.756 48.6272 376.663V380.011Z" fill="#E6E6E6"/>
<path d="M105.735 366.37L102.417 365.034C137.134 278.859 133.79 170.143 104.442 76.8828C100.956 66.0773 100.705 54.4884 103.719 43.542C106.733 32.5955 112.882 22.7688 121.408 15.271C138.442 0.0699747 161.926 -3.63314 182.699 5.60585C203.204 14.7269 206.03 30.6145 206.03 46.4247H202.453C202.453 29.5481 198.846 16.7038 181.245 8.87445C161.776 0.215829 139.761 3.68881 123.79 17.9405C115.782 24.9825 110.007 34.212 107.175 44.4934C104.344 54.7748 104.58 65.6596 107.855 75.8085C137.541 170.145 140.69 279.609 105.735 366.37Z" fill="#E6E6E6"/>
<path d="M203.347 99.1904C196.432 99.1904 190.826 93.5847 190.826 86.6697C190.826 79.7548 196.432 74.149 203.347 74.149C210.262 74.149 215.868 79.7548 215.868 86.6697C215.868 93.5847 210.262 99.1904 203.347 99.1904Z" fill="#E6E6E6"/>
<path d="M222.63 108.497V84.7732H218.941V108.497C217.883 108.925 217.007 109.708 216.463 110.711C215.918 111.714 215.74 112.876 215.958 113.996C216.176 115.116 216.777 116.126 217.658 116.852C218.539 117.578 219.644 117.975 220.786 117.975C221.927 117.975 223.033 117.578 223.914 116.852C224.795 116.126 225.396 115.116 225.614 113.996C225.832 112.876 225.653 111.714 225.109 110.711C224.565 109.708 223.688 108.925 222.63 108.497Z" fill="#E6E6E6"/>
<path d="M240.462 66.5472C240.456 61.0937 238.286 55.8653 234.43 52.0091C230.574 48.1529 225.346 45.9837 219.892 45.9775H185.907C180.452 45.9775 175.22 48.1447 171.362 52.0023C167.505 55.8598 165.338 61.0918 165.338 66.5472C165.338 72.0027 167.505 77.2347 171.362 81.0922C175.22 84.9498 180.452 87.117 185.907 87.117H219.892C225.346 87.1108 230.574 84.9416 234.43 81.0854C238.286 77.2292 240.456 72.0008 240.462 66.5472Z" fill="#0C1A49"/>
<path d="M288.345 193.928C284.933 150.273 267.487 129.474 278.658 116.43C289.358 103.936 319.5 106.517 338.857 118.506C391.068 150.843 410.196 279.726 343.009 342.696C279.163 402.533 158.164 383.368 131.274 334.392C125 322.965 120.015 302.932 129.198 290.8C151.996 260.679 234.885 315.236 271.739 281.113C293.579 260.89 290.218 217.885 288.345 193.928Z" fill="#3F3D56"/>
<path d="M248.434 172.24C249.702 172.823 250.693 173.878 251.195 175.181C251.697 176.483 251.671 177.93 251.122 179.214C251.007 179.473 250.87 179.722 250.713 179.959L261.92 194.922L256.328 203.28L243.192 181.122C242.262 180.396 241.598 179.383 241.303 178.24C241.009 177.097 241.102 175.889 241.566 174.804C241.837 174.189 242.226 173.634 242.711 173.169C243.196 172.705 243.767 172.341 244.393 172.097C245.019 171.853 245.687 171.736 246.358 171.75C247.03 171.765 247.692 171.911 248.306 172.182C248.349 172.2 248.392 172.22 248.434 172.24Z" fill="#FFB6B6"/>
<path d="M248.443 198.038C247.71 198.689 249.744 199.491 251.896 198.225C252.512 197.858 252.775 197.706 252.844 197.803C253.017 198.045 252.007 199.83 252.277 203.795C252.443 206.162 256.373 210.611 260.836 214.949C266.87 220.817 273.886 226.477 273.886 226.477L276.35 224.505L302.18 203.795L306.539 197.762C306.14 195.379 305.54 193.034 304.747 190.752C303.654 187.594 302.355 184.51 300.858 181.522C300.056 179.896 299.232 178.346 298.443 176.92L284.604 192.171L273.007 204.944C273.007 204.944 269.631 199.505 267.015 198.024C266.682 197.811 266.302 197.681 265.908 197.644C263.265 197.519 263.106 196.08 266.171 192.946C269.236 189.811 265.368 192.738 262.642 191.894C259.916 191.05 262.642 191.894 262.068 189.783C261.493 187.673 253.848 183.438 253.848 183.438L253.529 183.722L247.751 188.822L246.098 190.282C246.098 190.282 247.904 195.236 248.402 196.281C248.9 197.326 249.17 197.381 248.443 198.038Z" fill="#0C1A49"/>
<path d="M96.1347 294.161L95.8531 286.528L125.158 281.81L125.574 293.074L96.1347 294.161Z" fill="#FFB6B6"/>
<path d="M101.454 296.458L101.732 284.238L96.5081 284.431L88.0741 273.133C87.6576 272.575 87.0736 272.165 86.4074 271.962C85.7413 271.76 85.0278 271.775 84.3711 272.007C83.7144 272.239 83.149 272.674 82.7573 273.25C82.3656 273.826 82.1682 274.511 82.194 275.207L82.7296 289.724L87.9894 292.035L82.858 293.203L83.0599 298.676L101.454 296.458Z" fill="#2F2E41"/>
<path d="M261.066 297.132L168.246 299.485C168.246 299.485 128.164 301.8 118.76 295.683L108.842 294.431L108.305 279.863C108.305 279.863 114.369 279.908 117.856 278.284C121.343 276.659 118.919 274.671 122.244 276.626C125.568 278.58 125.217 278.815 127.787 277.917C130.357 277.019 248.22 259.054 248.22 259.054L261.066 297.132Z" fill="#2F2E41"/>
<path d="M138.755 290.811L133.357 285.407L151.631 262.017L159.597 269.992L138.755 290.811Z" fill="#FFB6B6"/>
<path d="M144.217 286.11L136.109 276.962L132.411 280.656L118.544 278.111C117.859 277.985 117.152 278.081 116.526 278.386C115.9 278.69 115.387 279.187 115.064 279.803C114.74 280.42 114.621 281.124 114.726 281.812C114.83 282.5 115.152 283.137 115.644 283.63L125.91 293.908L131.338 292.025L128.37 296.371L132.241 300.246L144.217 286.11Z" fill="#2F2E41"/>
<path d="M297.686 246.298L296.763 267.748C295.677 292.999 267.868 308.282 246.304 295.098C245.907 294.855 245.508 294.603 245.108 294.343C245.108 294.343 236.933 292.148 237.181 288.671C237.43 285.194 235.433 283.502 233.665 284.45C231.898 285.398 208.758 252.558 208.758 252.558C208.758 252.558 160.681 276.54 150.074 282.186C150.074 282.186 140.102 266.594 140.825 266.758C141.548 266.921 200.303 225.798 200.303 225.798C200.303 225.798 209.875 216.111 221.748 222.507C221.995 223.447 221.784 223.479 221.784 223.479L261.006 255.439L266.548 244.914L297.686 246.298Z" fill="#2F2E41"/>
<path d="M260.705 219.482C260.779 220.473 260.92 221.458 261.127 222.43C261.409 223.837 261.865 225.203 262.483 226.498C262.483 226.498 262.483 227.945 265.251 232.788C268.018 237.632 264.559 235.556 262.483 239.154C260.407 242.745 262.483 241.092 264.787 243.403C265.45 244.075 265.922 244.913 266.152 245.829C266.382 246.746 266.362 247.707 266.095 248.613C266.095 248.613 295.821 248.634 301.356 246.558C306.892 244.482 308.151 232.788 303.19 231.633C298.236 230.477 304.692 229.329 307.605 226.665C310.518 224.001 304.692 219.641 304.692 219.641C304.692 219.641 307.093 215.497 306.892 201.582C306.864 200.302 306.746 199.025 306.539 197.762C306.14 195.379 305.54 193.035 304.747 190.753C303.654 187.594 302.355 184.511 300.858 181.522C300.056 179.896 299.232 178.346 298.443 176.921C298.319 176.699 298.201 176.485 298.077 176.27C296.575 173.613 295.205 171.441 294.299 170.05C293.6 168.97 293.178 168.361 293.178 168.361L288.14 159.601L271.326 167.483L272.281 180.373L269.382 190.095L268.046 194.572L267.015 198.025L265.424 203.374C265.424 203.374 265.86 203.394 265.341 204.107C262.951 207.285 261.401 211.014 260.836 214.95C260.637 216.452 260.593 217.971 260.705 219.482Z" fill="#0C1A49"/>
<path d="M212.147 220.871L212.463 220.769L252.707 207.81L237.877 159.158C237.582 158.189 237.07 157.3 236.381 156.558C235.693 155.815 234.844 155.239 233.9 154.872C232.956 154.505 231.941 154.357 230.932 154.44C229.922 154.522 228.945 154.833 228.072 155.348L202.355 170.542C200.319 171.744 198.77 173.622 197.979 175.85C197.188 178.077 197.204 180.512 198.026 182.728L212.147 220.871Z" fill="#2F2E41"/>
<path d="M211.984 223.964L252.552 210.9L237.722 162.249C237.427 161.28 236.915 160.391 236.226 159.648C235.538 158.906 234.689 158.33 233.745 157.963C232.801 157.596 231.786 157.448 230.777 157.53C229.767 157.613 228.789 157.923 227.917 158.438L200.972 171.892C196.924 174.283 197.019 180.471 198.898 185.549L211.984 223.964Z" fill="#0C1A49"/>
<path d="M216.045 227.485C216.98 228.012 218.013 228.339 219.08 228.445C220.148 228.552 221.226 228.435 222.245 228.102L248.175 219.752C250.165 219.102 251.821 217.699 252.791 215.845C253.761 213.99 253.966 211.829 253.365 209.825L240.364 167.176C240.105 166.324 239.678 165.532 239.108 164.847C238.538 164.162 237.837 163.598 237.047 163.188C236.256 162.778 235.391 162.529 234.504 162.457C233.616 162.386 232.722 162.492 231.876 162.77L205.005 171.593C203.724 172.013 202.541 172.686 201.525 173.571C200.509 174.456 199.681 175.536 199.089 176.747C198.497 177.958 198.154 179.275 198.08 180.62C198.006 181.966 198.202 183.312 198.657 184.581L212.557 223.332C213.181 225.092 214.42 226.567 216.045 227.485Z" fill="#3F3D56"/>
<path d="M272.276 159.751C262.019 159.751 253.704 151.436 253.704 141.178C253.704 130.921 262.019 122.606 272.276 122.606C282.534 122.606 290.849 130.921 290.849 141.178C290.849 151.436 282.534 159.751 272.276 159.751Z" fill="#FFB6B6"/>
<path d="M335.08 160.031C333.375 163.334 330.581 165.947 327.17 167.425C325.809 168.045 324.377 168.498 322.907 168.774C322.492 167.126 321.827 165.551 320.935 164.105C321.232 165.735 321.232 167.406 320.935 169.037C318.695 169.22 316.442 168.94 314.315 168.215C312.226 167.505 310.332 166.317 308.782 164.747C307.232 163.177 306.069 161.267 305.386 159.169C303.906 154.246 305.5 148.988 305.625 143.85C305.755 138.71 303.314 132.564 298.213 131.928C294.328 131.443 294.808 131.819 292.016 134.564C295.921 138.902 286.401 158.115 281.293 157.266C278.405 156.786 276.28 154.493 275.708 154.573C272.783 161.736 281.582 171.895 274.604 175.23L275.121 174.545C278.774 168.511 267.966 158.319 271.618 152.284C272.637 150.596 273.696 148.617 273.066 146.75C272.468 144.974 269.439 144.412 268.8 146.028C269.839 142.324 266.939 137.977 263.088 137.599C259.667 137.261 259.865 138.236 256.603 139.126C256.186 137.721 255.585 136.377 254.816 135.129C255.076 136.553 255.109 138.009 254.911 139.443C253.735 139.583 252.545 139.331 251.526 138.726C248.514 136.92 248.424 132.259 250.493 129.422C252.567 126.584 256.039 125.183 259.389 124.123C259.42 117.038 278.483 113.647 281.989 120.234C282.35 114.9 288.463 111.308 293.73 112.214C298.997 113.12 303.151 117.343 305.684 122.049C308.217 126.753 309.474 132.019 311.328 137.028C313.182 142.038 315.833 147.033 320.272 150.006C324.711 152.974 331.309 153.244 335.015 149.396C335.86 151.039 336.307 152.858 336.318 154.706C336.329 156.553 335.905 158.378 335.08 160.031Z" fill="#2F2E41"/>
<path d="M316.023 244.961C315.639 244.654 315.222 244.39 314.78 244.174C307.671 240.636 285.565 231.452 268.279 231.829C235.02 232.554 192.693 269.259 202.544 293.908C210.04 312.664 247.304 323.335 274.506 314.8C312.614 302.844 327.656 254.236 316.023 244.961Z" fill="#3F3D56"/>
<path d="M454.095 380.082C464.962 378.032 474.582 329.071 453.2 304.958C445.875 296.696 436.737 293.101 424.582 289.754C354.621 270.494 301.261 288.85 294.09 293.332C286.935 297.803 274.392 365.179 290.431 374.716C299.456 380.082 317.342 382.765 326.205 376.505C339.245 367.293 317.357 343.399 327.099 327.316C338.154 309.065 396.37 302.918 425.557 321.056C456.696 340.408 392.467 391.708 454.095 380.082Z" fill="#F2F2F2"/>
<path d="M381.435 296.839H422.953C433.202 287.016 440.531 277.55 434.664 269.692C434.664 267.433 433.766 265.267 432.169 263.67C430.572 262.073 428.406 261.175 426.147 261.175H378.241C375.982 261.175 373.816 262.073 372.219 263.67C370.622 265.267 369.724 267.433 369.724 269.692C367.491 278.645 371.481 287.696 381.435 296.839Z" fill="#CCCCCC"/>
<path d="M388.891 250.453C389.285 250.471 389.675 250.368 390.008 250.157C390.342 249.946 390.602 249.638 390.754 249.274C390.906 248.91 390.943 248.508 390.859 248.123C390.775 247.738 390.575 247.388 390.285 247.12L390.153 246.596C390.171 246.554 390.188 246.512 390.206 246.47C390.603 245.533 391.268 244.734 392.117 244.173C392.967 243.612 393.963 243.315 394.981 243.319C395.999 243.323 396.993 243.627 397.839 244.194C398.684 244.761 399.343 245.565 399.733 246.506C401.291 250.258 403.275 254.018 403.763 257.986C403.979 259.74 403.888 261.518 403.495 263.241C407.155 255.257 409.055 246.58 409.068 237.798C409.068 235.594 408.946 233.392 408.701 231.202C408.498 229.406 408.217 227.624 407.858 225.854C405.896 216.251 401.685 207.249 395.569 199.59C392.609 197.975 390.215 195.491 388.71 192.474C388.165 191.389 387.78 190.231 387.566 189.036C387.9 189.08 388.825 183.995 388.573 183.683C389.039 182.977 389.871 182.626 390.38 181.936C392.907 178.51 396.389 179.108 398.207 183.765C402.091 185.725 402.128 188.975 399.746 192.102C398.23 194.091 398.021 196.782 396.691 198.911C396.828 199.086 396.97 199.256 397.107 199.431C399.609 202.648 401.789 206.102 403.617 209.744C403.172 205.664 403.703 201.537 405.165 197.701C406.646 194.127 409.423 191.117 411.869 188.027C414.806 184.316 420.83 185.935 421.347 190.64C421.352 190.686 421.357 190.731 421.362 190.777C420.999 190.982 420.643 191.199 420.295 191.429C419.858 191.721 419.52 192.139 419.324 192.626C419.128 193.114 419.084 193.65 419.198 194.163C419.311 194.676 419.577 195.143 419.961 195.502C420.345 195.862 420.828 196.097 421.347 196.177L421.4 196.185C421.271 197.494 421.042 198.792 420.716 200.066C423.853 212.199 417.08 216.618 407.409 216.816C407.196 216.926 406.988 217.035 406.774 217.139C408.61 222.344 409.762 227.764 410.201 233.266C410.449 236.511 410.434 239.771 410.157 243.015L410.173 242.9C410.874 239.293 412.798 236.039 415.62 233.687C419.811 230.244 425.733 228.976 430.255 226.208C430.736 225.9 431.294 225.735 431.865 225.734C432.436 225.732 432.996 225.894 433.478 226.201C433.96 226.507 434.345 226.944 434.586 227.462C434.828 227.979 434.916 228.555 434.841 229.121C434.835 229.162 434.829 229.202 434.822 229.242C434.148 229.517 433.492 229.833 432.857 230.189C432.494 230.394 432.139 230.612 431.791 230.842C431.354 231.134 431.015 231.551 430.819 232.039C430.623 232.526 430.579 233.062 430.693 233.575C430.807 234.088 431.073 234.555 431.456 234.915C431.84 235.274 432.323 235.509 432.842 235.589L432.896 235.597C432.934 235.603 432.967 235.608 433.005 235.614C431.853 238.364 430.237 240.895 428.226 243.097C426.265 253.688 417.839 254.693 408.827 251.609H408.821C407.832 255.906 406.4 260.088 404.546 264.089H389.274C389.219 263.92 389.17 263.744 389.121 263.575C390.534 263.663 391.953 263.579 393.347 263.323C392.213 261.932 391.08 260.531 389.947 259.141C389.922 259.115 389.898 259.087 389.876 259.059C389.301 258.347 388.721 257.641 388.146 256.929L388.146 256.928C388.115 254.747 388.366 252.571 388.891 250.453Z" fill="#CCCCCC"/>
<path d="M336.8 294.614C336.547 295.351 336.067 295.99 335.428 296.437C334.789 296.884 334.025 297.118 333.245 297.104L318.014 296.712C317.229 296.697 316.47 296.428 315.85 295.945C315.23 295.462 314.783 294.792 314.576 294.035L312.42 270.987C311.656 271.333 310.823 271.504 309.984 271.488C308.511 271.451 307.113 270.83 306.098 269.763C305.083 268.695 304.533 267.268 304.57 265.795C304.607 264.323 305.228 262.925 306.295 261.91C307.363 260.894 308.79 260.345 310.263 260.382C310.598 260.381 310.933 260.415 311.261 260.486C311.618 260.1 312.051 259.793 312.534 259.584C313.017 259.376 313.537 259.271 314.063 259.276L337.492 259.881C337.686 259.889 337.88 259.913 338.07 259.953C338.584 260.049 339.071 260.254 339.499 260.554C339.927 260.853 340.286 261.242 340.551 261.692C340.817 262.142 340.983 262.644 341.038 263.164C341.093 263.683 341.037 264.209 340.872 264.705L336.8 294.614ZM311.978 269.422L310.445 263.93C310.27 263.295 310.266 262.626 310.433 261.99C310.359 261.989 310.293 261.954 310.218 261.954C309.167 261.932 308.15 262.329 307.39 263.056C306.63 263.783 306.19 264.782 306.165 265.833C306.141 266.885 306.534 267.903 307.259 268.665C307.984 269.427 308.981 269.87 310.032 269.898C310.712 269.919 311.385 269.755 311.978 269.422Z" fill="#CCCCCC"/>
<path d="M338.07 259.953C337.571 262.807 331.959 264.814 325.211 264.465C319.006 264.179 313.932 262 313.003 259.418C313.347 259.316 313.705 259.268 314.063 259.277L337.492 259.882C337.686 259.889 337.88 259.913 338.07 259.953Z" fill="white"/>
<path d="M513.765 381.163L0.815674 381.373C0.599365 381.373 0.391907 381.287 0.238892 381.134C0.0859375 380.981 0 380.774 0 380.558C0 380.341 0.0859375 380.134 0.238892 379.981C0.391907 379.828 0.599365 379.742 0.815674 379.742L513.765 379.531C513.982 379.531 514.189 379.617 514.342 379.77C514.495 379.923 514.581 380.131 514.581 380.347C514.581 380.563 514.495 380.771 514.342 380.924C514.189 381.077 513.982 381.163 513.765 381.163Z" fill="#CACACA"/>
<path d="M226.068 198.861C227.463 198.912 228.783 199.505 229.747 200.515C230.711 201.524 231.244 202.87 231.231 204.266C231.224 204.549 231.193 204.832 231.14 205.11L247.238 214.615L245.289 224.48L224.644 209.076C223.506 208.764 222.503 208.084 221.792 207.142C221.081 206.2 220.702 205.049 220.714 203.869C220.727 203.198 220.873 202.535 221.142 201.92C221.411 201.305 221.799 200.748 222.283 200.283C222.767 199.818 223.338 199.452 223.963 199.207C224.589 198.963 225.256 198.843 225.928 198.857C225.974 198.857 226.021 198.859 226.068 198.861Z" fill="#FFB6B6"/>
<path d="M239.255 221.519C239.686 220.942 239.871 220.7 239.969 220.767C240.221 220.919 239.979 222.957 241.752 226.509C244.248 231.5 270.418 239.144 270.418 239.144L273.64 233.245L287.813 207.322L292.698 186.544C292.869 185.819 292.952 185.077 292.945 184.333C288.589 181.267 283.964 178.605 279.126 176.378C277.193 177.475 275.719 179.231 274.974 181.325L265.218 208.679L261.325 219.601C261.325 219.601 254.458 214.69 251.967 215.592C249.48 216.499 248.773 215.227 250.399 211.156C252.024 207.085 249.584 211.275 246.745 211.542C243.9 211.812 246.745 211.542 245.401 209.814C244.057 208.087 235.368 207.115 235.368 207.115L235.184 207.5L231.816 214.426L230.852 216.416C230.852 216.416 234.422 220.289 235.283 221.061C236.149 221.839 236.416 221.785 235.992 222.671C235.574 223.553 237.76 223.513 239.255 221.519Z" fill="#0C1A49"/>
</g>
<defs>
<clipPath id="clip0_143_102">
<rect width="514.581" height="381.186" fill="white" transform="matrix(-1 0 0 1 514.581 0.591553)"/>
</clipPath>
</defs>
</svg>
