<svg width="50" height="50" viewBox="0 0 50 50" fill="none" xmlns="http://www.w3.org/2000/svg">
<path fill-rule="evenodd" clip-rule="evenodd" d="M32.9719 7.14643C32.9719 12.6064 37.4046 17.0326 42.8725 17.0326C43.4746 17.0296 44.0752 16.9718 44.6667 16.8599V36.4595C44.6667 44.7051 39.8029 49.5834 31.5452 49.5834H13.5598C5.28041 49.5834 0.416565 44.7051 0.416565 36.4595V18.5004C0.416565 10.2547 5.28041 5.33325 13.5598 5.33325H33.1448C33.0286 5.93064 32.9707 6.53788 32.9719 7.14643ZM27.827 32.1208L34.8526 23.0549V23.0118C35.454 22.2036 35.3005 21.0639 34.5067 20.4431C34.1224 20.1465 33.6342 20.0181 33.1535 20.0872C32.6727 20.1564 32.2406 20.4172 31.9559 20.81L26.0328 28.4297L19.2882 23.1197C18.9032 22.8197 18.4133 22.6872 17.9293 22.7522C17.4453 22.8172 17.0078 23.0742 16.7158 23.465L9.45247 32.8331C9.19717 33.1514 9.05972 33.5478 9.06336 33.9556C9.02121 34.7796 9.54159 35.5282 10.3295 35.7769C11.1174 36.0256 11.9741 35.7118 12.414 35.0133L18.4884 27.1562L25.2329 32.4446C25.6166 32.7539 26.1096 32.8941 26.5989 32.833C27.0881 32.7719 27.5314 32.5149 27.827 32.1208Z" fill="#0C1A49"/>
<circle opacity="0.4" cx="43.4376" cy="6.56236" r="6.14586" fill="#0C1A49"/>
</svg>
