<svg width="51" height="51" viewBox="0 0 51 51" fill="none" xmlns="http://www.w3.org/2000/svg">
<path opacity="0.4" d="M25.3057 41.9705L5.01903 50.077C3.48703 50.7423 1.57601 50.2981 0.71914 49.0775C0.46889 48.6938 0.336557 48.2673 0.333252 47.8338V29.6887C0.333252 31.4877 1.60117 32.5982 4.93634 33.8419L25.3057 41.9705Z" fill="#0C1A49"/>
<path fill-rule="evenodd" clip-rule="evenodd" d="M15.6309 0.416504H34.9253C43.3873 0.416504 50.2506 3.08163 50.3333 9.89992V47.8336C50.3299 48.26 50.1974 48.6793 49.9474 49.0551C49.5456 49.6681 48.8518 50.1232 48.0253 50.3159C47.1989 50.5085 46.3107 50.4222 45.5648 50.0768L25.3057 41.9703L4.93634 33.8417C1.60117 32.5979 0.333252 31.4875 0.333252 29.6885V9.89992C0.333252 3.08163 7.19654 0.416504 15.6309 0.416504ZM13.5361 19.4723H37.0477C38.4026 19.4723 39.5009 18.5873 39.5009 17.4957C39.5009 16.404 38.4026 15.519 37.0477 15.519H13.5361C12.1813 15.519 11.083 16.404 11.083 17.4957C11.083 18.5873 12.1813 19.4723 13.5361 19.4723Z" fill="#0C1A49"/>
</svg>
