<svg width="40" height="50" viewBox="0 0 40 50" fill="none" xmlns="http://www.w3.org/2000/svg">
<path opacity="0.4" d="M19.9782 41.2779L4.01934 49.2492C2.81416 49.9035 1.31083 49.4667 0.636756 48.2665C0.439893 47.8891 0.335791 47.4697 0.333191 47.0435V29.2008C0.333191 30.9698 1.33062 32.0617 3.95429 33.2847L19.9782 41.2779Z" fill="#0C1A49"/>
<path fill-rule="evenodd" clip-rule="evenodd" d="M12.3674 0.416504H27.5456C34.2024 0.416504 39.6015 3.03721 39.6665 9.74187V47.0433C39.6639 47.4626 39.5597 47.8749 39.363 48.2445C39.0469 48.8473 38.5011 49.2948 37.851 49.4842C37.2008 49.6737 36.5021 49.5888 35.9153 49.2491L19.9782 41.2778L3.95429 33.2846C1.33062 32.0616 0.333191 30.9696 0.333191 29.2006V9.74187C0.333191 3.03721 5.73231 0.416504 12.3674 0.416504ZM10.7195 19.1548H29.2153C30.2811 19.1548 31.1451 18.2845 31.1451 17.2111C31.1451 16.1376 30.2811 15.2674 29.2153 15.2674H10.7195C9.65374 15.2674 8.78973 16.1376 8.78973 17.2111C8.78973 18.2845 9.65374 19.1548 10.7195 19.1548Z" fill="#0C1A49"/>
</svg>
