<svg width="80" height="77" viewBox="0 0 80 77" fill="none" xmlns="http://www.w3.org/2000/svg">
<path opacity="0.4" d="M72.3403 26.9998H63.6703C60.2803 26.9998 58.0003 29.3798 58.0003 32.9198V41.0898C58.0003 44.6198 60.2803 46.9998 63.6703 46.9998H72.3403C75.7303 46.9998 78.0003 44.6198 78.0003 41.0898V32.9198C78.0003 29.3798 75.7303 26.9998 72.3403 26.9998Z" fill="#0C1A49"/>
<path d="M66.8134 40.2479C66.5894 40.2479 66.3654 40.1629 66.1944 39.9919L63.8214 37.6189C63.4794 37.2769 63.4794 36.7229 63.8214 36.3819C64.1634 36.0399 64.7164 36.0389 65.0584 36.3809L66.8134 38.1359L70.9414 34.0079C71.2834 33.6659 71.8364 33.6659 72.1784 34.0079C72.5204 34.3499 72.5204 34.9039 72.1784 35.2459L67.4324 39.9919C67.2614 40.1629 67.0374 40.2479 66.8134 40.2479Z" fill="#0C1A49"/>
<path d="M38.4898 48.6852C24.6522 48.6852 12.8327 50.8668 12.8327 59.5935C12.8327 68.3234 24.5784 70.5821 38.4898 70.5821C52.3273 70.5821 64.1468 68.4036 64.1468 59.6737C64.1468 50.9438 52.4043 48.6852 38.4898 48.6852Z" fill="#0C1A49"/>
<path opacity="0.4" d="M38.4898 40.3727C47.9159 40.3727 55.4683 32.8171 55.4683 23.3942C55.4683 13.9713 47.9159 6.41571 38.4898 6.41571C29.067 6.41571 21.5113 13.9713 21.5113 23.3942C21.5113 32.8171 29.067 40.3727 38.4898 40.3727Z" fill="#0C1A49"/>
</svg>
