<svg width="81" height="80" viewBox="0 0 81 80" fill="none" xmlns="http://www.w3.org/2000/svg">
<path opacity="0.4" d="M63.1961 30.07C61.691 30.07 59.6975 30.0367 57.2155 30.0367C51.1624 30.0367 46.1852 25.0267 46.1852 18.9167V8.19669C46.1852 7.35335 45.5119 6.66669 44.6768 6.66669H27.0454C18.8172 6.66669 12.1667 13.42 12.1667 21.6967V57.6134C12.1667 66.2967 19.1341 73.3334 27.7319 73.3334H53.9876C62.1861 73.3334 68.8334 66.6234 68.8334 58.34V31.57C68.8334 30.7234 68.1633 30.04 67.325 30.0434C65.9157 30.0534 64.2258 30.07 63.1961 30.07Z" fill="#0C1A49"/>
<path opacity="0.4" d="M54.1133 8.55772C53.1167 7.52105 51.3767 8.23438 51.3767 9.67105V18.461C51.3767 22.1477 54.4133 25.181 58.1 25.181C60.4233 25.2077 63.65 25.2144 66.39 25.2077C67.7933 25.2044 68.5067 23.5277 67.5333 22.5144C64.0167 18.8577 57.72 12.3044 54.1133 8.55772Z" fill="#0C1A49"/>
<path fill-rule="evenodd" clip-rule="evenodd" d="M30.413 37.9587H41.6963C43.0663 37.9587 44.1797 36.8487 44.1797 35.4787C44.1797 34.1087 43.0663 32.9954 41.6963 32.9954H30.413C29.043 32.9954 27.933 34.1087 27.933 35.4787C27.933 36.8487 29.043 37.9587 30.413 37.9587ZM30.4133 54.606H48.56C49.93 54.606 51.0433 53.496 51.0433 52.126C51.0433 50.756 49.93 49.6427 48.56 49.6427H30.4133C29.0433 49.6427 27.9333 50.756 27.9333 52.126C27.9333 53.496 29.0433 54.606 30.4133 54.606Z" fill="#0C1A49"/>
</svg>
