<svg width="46" height="50" viewBox="0 0 46 50" fill="none" xmlns="http://www.w3.org/2000/svg">
<path opacity="0.4" d="M33.3028 0.416504H12.6995C5.22613 0.416504 0.874878 4.79234 0.874878 12.2903V37.6848C0.874878 45.3057 5.22613 49.5832 12.6995 49.5832H33.3028C40.8965 49.5832 45.1249 45.3057 45.1249 37.6848V12.2903C45.1249 4.79234 40.8965 0.416504 33.3028 0.416504" fill="#0C1A49"/>
<path fill-rule="evenodd" clip-rule="evenodd" d="M13.3633 11.8479V11.8725C12.3038 11.8725 11.4458 12.7329 11.4458 13.79C11.4458 14.8471 12.3038 15.7075 13.3633 15.7075H20.7113C21.7708 15.7075 22.6312 14.8471 22.6312 13.7629C22.6312 12.7083 21.7708 11.8479 20.7113 11.8479H13.3633ZM32.6366 26.8193H13.3633C12.3038 26.8193 11.4458 25.9589 11.4458 24.9018C11.4458 23.8447 12.3038 22.9818 13.3633 22.9818H32.6366C33.6937 22.9818 34.5541 23.8447 34.5541 24.9018C34.5541 25.9589 33.6937 26.8193 32.6366 26.8193ZM32.6366 38.0536H13.3632C12.6257 38.1519 11.9128 37.7832 11.5195 37.1686C11.1262 36.5294 11.1262 35.7182 11.5195 35.1036C11.9128 34.4644 12.6257 34.1203 13.3632 34.194H32.6366C33.6174 34.2923 34.3574 35.1282 34.3574 36.1361C34.3574 37.117 33.6174 37.9553 32.6366 38.0536Z" fill="#0C1A49"/>
</svg>
