<svg width="430" height="300" viewBox="0 0 430 300" fill="none" xmlns="http://www.w3.org/2000/svg">
<g clip-path="url(#clip0_189_227)">
<path d="M85.6747 299.173C132.991 299.173 171.349 296.26 171.349 292.667C171.349 289.073 132.991 286.16 85.6747 286.16C38.3578 286.16 0 289.073 0 292.667C0 296.26 38.3578 299.173 85.6747 299.173Z" fill="#E6E6E6"/>
<path d="M65.4883 66.3813C80.3983 60.0396 98.9689 64.0577 117.105 66.8463C117.274 63.4692 119.319 59.3591 117.177 57.0031C114.573 54.1407 114.813 51.1331 116.379 48.1082C120.386 40.3731 114.646 32.1425 108.851 25.2989C107.545 23.7598 105.894 22.5506 104.033 21.7693C102.171 20.9881 100.152 20.6569 98.1386 20.8027L87.4035 21.5695C84.7912 21.7561 82.2982 22.736 80.2581 24.3781C78.218 26.0203 76.728 28.2463 75.9876 30.7584C73.4243 34.2446 72.0523 37.7211 72.9161 41.1796C69.0767 43.8034 68.4316 46.9706 70.1569 50.5411C71.6199 52.7892 71.6043 54.9775 70.0904 57.1053C68.1021 59.818 66.5792 62.8428 65.5842 66.0556L65.4883 66.3813Z" fill="#2F2E41"/>
<path d="M419.811 258.631H115.927C113.225 258.631 110.633 257.557 108.722 255.646C106.811 253.735 105.738 251.144 105.738 248.441C215.896 235.639 323.983 235.639 430 248.441C430 251.144 428.927 253.735 427.016 255.646C425.105 257.557 422.513 258.631 419.811 258.631Z" fill="#2F2E41"/>
<path d="M430 249.041L105.738 248.441L143.319 185.207L143.498 184.907V45.5466C143.498 43.855 143.831 42.18 144.479 40.6172C145.126 39.0544 146.075 37.6344 147.271 36.4383C148.467 35.2422 149.887 34.2934 151.45 33.6462C153.012 32.9989 154.688 32.6658 156.379 32.666H377.561C379.252 32.6658 380.927 32.9989 382.49 33.6462C384.053 34.2934 385.473 35.2422 386.669 36.4383C387.865 37.6344 388.814 39.0544 389.461 40.6172C390.108 42.18 390.441 43.855 390.441 45.5466V185.866L430 249.041Z" fill="#3F3D56"/>
<path d="M156.085 41.6566C154.973 41.6579 153.906 42.1003 153.12 42.8869C152.333 43.6734 151.891 44.7399 151.89 45.8522V172.92C151.891 174.032 152.333 175.099 153.12 175.885C153.906 176.672 154.973 177.114 156.085 177.116H379.652C380.765 177.114 381.831 176.672 382.618 175.885C383.404 175.099 383.847 174.032 383.848 172.92V45.8522C383.847 44.7399 383.404 43.6735 382.618 42.8869C381.831 42.1004 380.765 41.6579 379.652 41.6566H156.085Z" fill="white"/>
<path d="M157.022 193.898C156.678 193.899 156.342 193.997 156.053 194.183C155.763 194.368 155.533 194.633 155.389 194.945L143.809 220.118C143.683 220.392 143.627 220.694 143.648 220.994C143.669 221.295 143.765 221.586 143.928 221.84C144.091 222.094 144.315 222.303 144.579 222.448C144.844 222.592 145.14 222.668 145.442 222.668H388.96C389.266 222.668 389.568 222.59 389.835 222.44C390.103 222.291 390.328 222.076 390.489 221.815C390.65 221.554 390.742 221.257 390.756 220.951C390.77 220.644 390.705 220.34 390.568 220.066L377.981 194.892C377.832 194.593 377.603 194.341 377.319 194.165C377.035 193.99 376.707 193.897 376.373 193.898H157.022Z" fill="#2F2E41"/>
<path d="M266.97 39.5588C268.46 39.5588 269.667 38.3512 269.667 36.8616C269.667 35.372 268.46 34.1644 266.97 34.1644C265.481 34.1644 264.273 35.372 264.273 36.8616C264.273 38.3512 265.481 39.5588 266.97 39.5588Z" fill="white"/>
<path d="M243.034 227.463C242.638 227.464 242.254 227.594 241.941 227.835C241.627 228.075 241.401 228.412 241.298 228.794L238.393 239.582C238.321 239.849 238.312 240.128 238.365 240.399C238.419 240.67 238.534 240.925 238.702 241.144C238.87 241.363 239.086 241.54 239.333 241.662C239.581 241.785 239.853 241.848 240.129 241.848H295.37C295.656 241.848 295.939 241.78 296.194 241.648C296.448 241.517 296.668 241.326 296.834 241.093C297.001 240.859 297.109 240.589 297.149 240.306C297.19 240.022 297.162 239.733 297.068 239.462L293.334 228.673C293.212 228.32 292.982 228.013 292.678 227.797C292.373 227.58 292.009 227.463 291.635 227.463H243.034Z" fill="#2F2E41"/>
<path d="M390.441 182.81V185.207H143.318L143.504 184.908V182.81H390.441Z" fill="#2F2E41"/>
<path d="M383.548 83.9126C406.72 83.9126 425.504 65.1281 425.504 41.9563C425.504 18.7845 406.72 3.8147e-06 383.548 3.8147e-06C360.376 3.8147e-06 341.592 18.7845 341.592 41.9563C341.592 65.1281 360.376 83.9126 383.548 83.9126Z" fill="#0C1A49"/>
<path d="M400.93 60.2373H366.167C365.531 60.2367 364.921 59.9839 364.472 59.5344C364.022 59.0849 363.77 58.4754 363.769 57.8398V36.8616C363.77 36.226 364.023 35.6165 364.472 35.1671C364.921 34.7176 365.531 34.4648 366.167 34.4641H400.93C401.566 34.4648 402.175 34.7176 402.625 35.1671C403.074 35.6165 403.327 36.226 403.328 36.8616V57.8398C403.327 58.4754 403.074 59.0849 402.625 59.5344C402.175 59.9839 401.566 60.2367 400.93 60.2373ZM366.167 36.8616V57.8398H400.932L400.93 36.8616L366.167 36.8616Z" fill="white"/>
<path d="M394.337 36.8616H372.76V27.2716C372.76 20.3255 377.297 15.2841 383.549 15.2841C389.8 15.2841 394.337 20.3255 394.337 27.2716L394.337 36.8616ZM375.157 34.4641H391.94V27.2716C391.94 21.6252 388.489 17.6816 383.549 17.6816C378.608 17.6816 375.157 21.6252 375.157 27.2716L375.157 34.4641Z" fill="white"/>
<path d="M383.548 49.1488C384.872 49.1488 385.946 48.0754 385.946 46.7513C385.946 45.4272 384.872 44.3538 383.548 44.3538C382.224 44.3538 381.151 45.4272 381.151 46.7513C381.151 48.0754 382.224 49.1488 383.548 49.1488Z" fill="white"/>
<path d="M354.259 134.015H181.478C180.63 134.014 179.817 133.677 179.217 133.077C178.617 132.477 178.28 131.664 178.279 130.816V87.9563C178.28 87.108 178.617 86.2947 179.217 85.6949C179.817 85.0951 180.63 84.7576 181.478 84.7567H354.259C355.107 84.7576 355.921 85.0951 356.521 85.6949C357.12 86.2947 357.458 87.108 357.459 87.9563V130.816C357.458 131.664 357.12 132.477 356.521 133.077C355.921 133.677 355.107 134.014 354.259 134.015ZM181.478 86.0365C180.969 86.0371 180.481 86.2395 180.122 86.5994C179.762 86.9593 179.559 87.4473 179.559 87.9563V130.816C179.559 131.325 179.762 131.813 180.122 132.173C180.481 132.533 180.969 132.735 181.478 132.736H354.259C354.768 132.735 355.256 132.533 355.616 132.173C355.976 131.813 356.178 131.325 356.179 130.816V87.9563C356.178 87.4473 355.976 86.9593 355.616 86.5994C355.256 86.2395 354.768 86.0371 354.259 86.0365L181.478 86.0365Z" fill="#E6E6E6"/>
<path d="M208.325 120.775C215.523 120.775 221.359 114.94 221.359 107.742C221.359 100.543 215.523 94.7079 208.325 94.7079C201.127 94.7079 195.292 100.543 195.292 107.742C195.292 114.94 201.127 120.775 208.325 120.775Z" fill="#E6E6E6"/>
<path d="M238.427 99.0525C238.141 99.052 237.858 99.1079 237.594 99.2168C237.33 99.3258 237.091 99.4857 236.888 99.6875C236.686 99.8893 236.526 100.129 236.417 100.393C236.307 100.656 236.251 100.939 236.251 101.225C236.251 101.51 236.307 101.793 236.417 102.057C236.526 102.321 236.686 102.56 236.888 102.762C237.091 102.964 237.33 103.124 237.594 103.233C237.858 103.342 238.141 103.397 238.427 103.397H340.834C341.41 103.397 341.962 103.168 342.37 102.761C342.777 102.353 343.006 101.801 343.006 101.225C343.006 100.649 342.777 100.096 342.37 99.6887C341.962 99.2813 341.41 99.0525 340.834 99.0525H238.427Z" fill="#E6E6E6"/>
<path d="M238.427 112.086C237.851 112.086 237.298 112.315 236.891 112.722C236.483 113.13 236.254 113.682 236.254 114.258C236.254 114.834 236.483 115.387 236.891 115.794C237.298 116.202 237.851 116.431 238.427 116.431H282.493C283.069 116.431 283.621 116.202 284.029 115.794C284.436 115.387 284.665 114.834 284.665 114.258C284.665 113.682 284.436 113.13 284.029 112.722C283.621 112.315 283.069 112.086 282.493 112.086H238.427Z" fill="#E6E6E6"/>
<path d="M142.894 112.965L110.954 129.946L110.549 115.795C120.974 114.055 130.893 111.025 140.063 106.092L143.404 97.8387C143.768 96.9394 144.359 96.1502 145.121 95.5487C145.882 94.9471 146.786 94.5537 147.745 94.4073C148.704 94.2608 149.685 94.3663 150.591 94.7133C151.497 95.0603 152.297 95.637 152.913 96.3867C153.814 97.4835 154.264 98.8818 154.173 100.298C154.081 101.715 153.455 103.044 152.42 104.015L142.894 112.965Z" fill="#FFB8B8"/>
<path d="M64.8514 211.005C64.6184 210.151 64.5689 209.256 64.7062 208.381C64.8436 207.506 65.1646 206.67 65.6481 205.928L72.6644 195.16C74.3239 192.614 76.8703 190.774 79.8095 189.998C82.7487 189.223 85.8712 189.567 88.5711 190.964C85.6224 195.983 86.0335 200.386 89.5895 204.213C84.0692 206.908 78.9671 210.386 74.4413 214.54C73.6151 215.103 72.6663 215.461 71.6738 215.583C70.6814 215.705 69.6741 215.589 68.7358 215.243C67.7976 214.897 66.9556 214.332 66.2799 213.595C65.6042 212.858 65.1145 211.97 64.8514 211.005Z" fill="#2F2E41"/>
<path d="M144.348 196.926C143.286 198.696 141.788 200.163 139.996 201.186C138.204 202.21 136.179 202.755 134.115 202.771L87.5039 203.124L85.4824 191.399L106.102 185.335L88.7168 171.993L107.719 149.756L142.233 181.925C144.25 183.805 145.561 186.32 145.946 189.051C146.331 191.782 145.767 194.562 144.348 196.926Z" fill="#2F2E41"/>
<path d="M80.2267 277.111H69.3105C59.5094 209.929 49.5328 142.558 79.0138 117.412L113.784 123.072L109.336 152.586L89.9299 174.823L80.2267 277.111Z" fill="#2F2E41"/>
<path d="M89.8227 292.33C88.9681 292.563 88.0739 292.613 87.1988 292.476C86.3238 292.338 85.4877 292.018 84.7455 291.534L72.8928 289.941C70.3459 288.281 68.5062 285.735 67.7306 282.796C66.955 279.857 67.2988 276.734 68.6953 274.034C73.7148 276.983 78.1179 276.571 81.9443 273.015C84.6479 278.474 89.1024 278.141 93.3567 282.74C93.92 283.567 94.2777 284.515 94.4001 285.508C94.5224 286.5 94.4059 287.507 94.0601 288.446C93.7144 289.384 93.1494 290.226 92.4123 290.902C91.6752 291.578 90.7874 292.067 89.8227 292.33Z" fill="#2F2E41"/>
<path d="M106.102 72.5346L85.8867 67.683C89.2441 60.8106 89.5206 53.1637 87.9082 45.0421L101.654 44.6378C102.085 54.7373 103.388 64.1728 106.102 72.5346Z" fill="#FFB8B8"/>
<path d="M111.658 135.246C96.942 145.273 86.5442 135.589 78.6095 120.647C79.7121 111.503 77.9268 100.562 74.6204 88.6724C73.1499 83.4285 73.6989 77.8238 76.159 72.9648C78.6191 68.1059 82.8114 64.3459 87.9084 62.4271L105.293 69.7045C120.055 81.7372 122.961 94.7709 117.423 108.518L111.658 135.246Z" fill="#0C1A49"/>
<path d="M69.3106 82.6422L53.1385 91.1325L81.844 108.113L85.8382 117.966C86.1048 118.623 86.2346 119.328 86.2199 120.038C86.2051 120.747 86.046 121.446 85.7523 122.092C85.4585 122.738 85.0363 123.317 84.5114 123.795C83.9865 124.272 83.3698 124.637 82.699 124.869C81.9365 125.132 81.1234 125.215 80.3235 125.111C79.5236 125.007 78.7586 124.72 78.0883 124.271C77.4181 123.822 76.8608 123.224 76.4602 122.524C76.0596 121.824 75.8265 121.041 75.7791 120.236L75.3752 113.369L38.8909 101.329C37.6616 100.924 36.5408 100.244 35.6133 99.3406C34.6858 98.4377 33.976 97.3355 33.5375 96.1176C32.8984 94.3422 32.8659 92.4051 33.445 90.6094C34.0241 88.8136 35.1823 87.2605 36.7382 86.1931L66.0762 66.0658L69.3106 82.6422Z" fill="#FFB8B8"/>
<path d="M85.4827 84.2594C78.7379 81.3036 72.6047 84.5145 64.8633 87.0895L63.6504 65.6615C71.3373 61.5645 78.6663 60.4598 85.4827 63.64L85.4827 84.2594Z" fill="#0C1A49"/>
<path d="M93.5506 55.2518C100.679 55.2518 106.457 49.4733 106.457 42.3452C106.457 35.2171 100.679 29.4387 93.5506 29.4387C86.4225 29.4387 80.644 35.2171 80.644 42.3452C80.644 49.4733 86.4225 55.2518 93.5506 55.2518Z" fill="#FFB8B8"/>
<path d="M108.991 40.7168C96.2128 41.9683 86.4756 39.8784 80.2524 33.9278V29.1356H107.907L108.991 40.7168Z" fill="#2F2E41"/>
</g>
<defs>
<clipPath id="clip0_189_227">
<rect width="430" height="299.173" fill="white"/>
</clipPath>
</defs>
</svg>
