<svg width="195" height="41" viewBox="0 0 195 41" fill="none" xmlns="http://www.w3.org/2000/svg">
<path d="M40.8795 20.1062C41.1174 29.5581 34.2006 37.4326 25.6689 39.5921C12.1733 42.4715 1.21282 32.4625 0.999997 20.4817C0.849767 8.88907 9.98244 0.313493 20.6174 0.000516173C32.185 -0.0808579 41.0861 9.4712 40.8795 20.1062ZM19.3467 6.41655C10.1953 6.5167 7.87923 5.92204 9.36274 7.39929C10.4957 7.45563 11.3533 7.25533 12.311 8.03151C13.6568 9.57136 12.6991 15.1862 12.9682 16.1752C12.7992 30.8914 14.0887 31.8052 9.22503 31.7927C8.93084 31.6988 9.03725 32.0619 9.02473 32.45C9.03725 32.7379 9.11862 32.763 9.44412 32.7817C12.962 32.8256 16.1231 32.7129 19.5032 32.8256C19.353 34.3341 19.547 36.212 17.5377 36.1118C16.6551 37.902 19.5157 37.1196 20.4985 37.2761C24.5672 37.1572 25.9067 37.8269 25.1431 36.0993C23.4843 36.1807 23.2214 34.284 23.3278 33.0071C24.6423 32.1871 27.0898 32.813 28.7986 32.0619C36.3289 29.7083 36.1473 20.7947 28.423 19.2048C34.5261 17.2393 34.3696 10.0846 29.0803 7.6309C23.7347 5.45258 22.7957 7.46815 23.5844 5.4338C23.7534 4.93304 23.935 4.50739 24.6485 4.48861C25.0742 4.47609 25.2182 4.45105 25.2745 4.21319C25.2933 3.69991 25.4936 3.19288 24.7111 3.28678C22.2699 3.29929 20.1667 3.29304 17.6316 3.29304C17.4063 3.13655 17.2435 4.39471 17.6879 4.48861C18.8334 4.2883 19.5533 5.51517 19.3467 6.41655Z" fill="#005795"/>
<path d="M23.309 20.1375C23.5719 20.2063 23.7785 20.2689 23.9976 20.3065C24.1979 20.344 24.3919 20.3315 24.5985 20.4567C24.8426 20.6069 25.1806 20.6007 25.4623 20.7008C25.8003 20.826 26.1258 20.9825 26.4451 21.1453C27.1586 21.5146 27.7846 22.0028 28.2666 22.6538C28.4731 22.9292 28.6296 23.2547 28.7924 23.5614C28.9238 23.8056 29.0302 24.0622 29.1492 24.3126C29.1554 24.3314 29.1617 24.3501 29.168 24.3689C29.2305 24.9385 29.3557 25.5082 29.337 26.0778C29.3244 26.5034 29.1554 26.9353 29.0177 27.3547C28.9051 27.6927 28.7673 28.0307 28.5733 28.3249C28.348 28.6692 28.0788 29.001 27.7658 29.2701C27.3527 29.6207 26.902 29.9462 26.4325 30.2091C26.0632 30.4094 25.6376 30.5095 25.2244 30.6347C24.8051 30.7599 24.3857 30.8663 23.96 30.979C23.8974 30.9978 23.8348 30.9978 23.7722 31.004C23.3153 31.0353 23.3153 31.0353 23.3153 30.5721C23.3153 27.2295 23.3153 23.8869 23.3153 20.5506C23.309 20.4191 23.309 20.294 23.309 20.1375Z" fill="#005795"/>
<path d="M23.3716 8.15669C23.6157 8.21929 23.8598 8.27562 24.0977 8.34448C24.3481 8.41959 24.5985 8.50097 24.8489 8.5886C25.4498 8.79517 25.9756 9.10814 26.4951 9.48372C26.783 9.69028 27.0397 9.91562 27.265 10.1723C27.4779 10.4164 27.6531 10.7043 27.8221 10.986C28.0099 11.299 28.1664 11.6307 28.3292 11.9625C28.3605 12.0251 28.3605 12.1002 28.373 12.1753C28.423 12.5321 28.4919 12.8952 28.5044 13.2582C28.5107 13.5023 28.423 13.7465 28.4105 13.9968C28.3855 14.6165 28.1163 15.1423 27.8597 15.6932C27.5342 16.4005 27.0084 16.8825 26.4137 17.3207C26.1446 17.521 25.8066 17.6524 25.4811 17.7526C24.805 17.9591 24.1165 18.1156 23.453 18.2909C23.2902 18.0593 23.2339 8.75135 23.3716 8.15669Z" fill="#005795"/>
<path d="M17.2748 30.6097C17.2748 27.1168 17.2748 23.6428 17.2748 20.15C17.3499 20.1375 17.4187 20.1249 17.4876 20.1187C18.0635 20.0623 18.6394 20.006 19.2152 19.9497C19.4969 19.9184 19.572 20.0498 19.572 20.3127C19.5595 23.6866 19.5595 27.0543 19.5533 30.4281C19.5533 30.5346 19.5595 30.6347 19.547 30.7411C19.5345 30.9665 19.4093 31.0165 19.2027 30.9539C19.0087 30.8976 18.8021 30.8601 18.6018 30.8288C18.1762 30.7536 17.7442 30.6848 17.2748 30.6097Z" fill="#005795"/>
<path d="M17.256 18.1094C17.256 17.9779 17.256 17.8653 17.256 17.7526C17.256 14.7355 17.256 11.7184 17.256 8.70128C17.256 8.23808 17.2623 8.24434 17.7192 8.20052C18.22 8.15044 18.7145 8.06907 19.209 8.00647C19.4719 7.96892 19.5783 8.03151 19.5721 8.35075C19.5533 10.0972 19.5721 11.8436 19.5721 13.5962C19.5721 15.1048 19.5721 16.6133 19.5658 18.1219C19.5658 18.1907 19.4406 18.3222 19.378 18.3159C18.9586 18.2909 18.5392 18.2471 18.1199 18.2033C17.8507 18.172 17.5815 18.1469 17.256 18.1094Z" fill="#005795"/>
<path d="M57.76 28V25.56H61.08C61.6933 25.56 62.1733 25.38 62.52 25.02C62.8667 24.66 63.04 24.22 63.04 23.7C63.04 23.34 62.96 23.02 62.8 22.74C62.64 22.46 62.4133 22.24 62.12 22.08C61.84 21.92 61.4933 21.84 61.08 21.84H57.76V19.46H60.82C61.34 19.46 61.76 19.3333 62.08 19.08C62.4 18.8133 62.56 18.4133 62.56 17.88C62.56 17.36 62.4 16.9733 62.08 16.72C61.76 16.4533 61.34 16.32 60.82 16.32H57.76V13.88H61.42C62.3267 13.88 63.0933 14.0467 63.72 14.38C64.36 14.7133 64.8467 15.16 65.18 15.72C65.5133 16.28 65.68 16.9 65.68 17.58C65.68 18.4467 65.4 19.18 64.84 19.78C64.28 20.38 63.4533 20.7933 62.36 21.02L62.44 19.96C63.6267 20.1867 64.54 20.6467 65.18 21.34C65.8333 22.0333 66.16 22.8867 66.16 23.9C66.16 24.6733 65.9667 25.3733 65.58 26C65.2067 26.6133 64.66 27.1 63.94 27.46C63.2333 27.82 62.38 28 61.38 28H57.76ZM55.36 28V13.88H58.46V28H55.36ZM71.9525 28.2C71.0592 28.2 70.2592 27.98 69.5525 27.54C68.8592 27.1 68.3058 26.5 67.8925 25.74C67.4925 24.98 67.2925 24.1133 67.2925 23.14C67.2925 22.1667 67.4925 21.3 67.8925 20.54C68.3058 19.78 68.8592 19.18 69.5525 18.74C70.2592 18.3 71.0592 18.08 71.9525 18.08C72.6058 18.08 73.1925 18.2067 73.7125 18.46C74.2458 18.7133 74.6792 19.0667 75.0125 19.52C75.3458 19.96 75.5325 20.4667 75.5725 21.04V25.24C75.5325 25.8133 75.3458 26.3267 75.0125 26.78C74.6925 27.22 74.2658 27.5667 73.7325 27.82C73.1992 28.0733 72.6058 28.2 71.9525 28.2ZM72.5725 25.44C73.2258 25.44 73.7525 25.2267 74.1525 24.8C74.5525 24.36 74.7525 23.8067 74.7525 23.14C74.7525 22.6867 74.6592 22.2867 74.4725 21.94C74.2992 21.5933 74.0458 21.3267 73.7125 21.14C73.3925 20.94 73.0192 20.84 72.5925 20.84C72.1658 20.84 71.7858 20.94 71.4525 21.14C71.1325 21.3267 70.8725 21.5933 70.6725 21.94C70.4858 22.2867 70.3925 22.6867 70.3925 23.14C70.3925 23.58 70.4858 23.9733 70.6725 24.32C70.8592 24.6667 71.1192 24.94 71.4525 25.14C71.7858 25.34 72.1592 25.44 72.5725 25.44ZM74.6325 28V25.38L75.0925 23.02L74.6325 20.66V18.28H77.6325V28H74.6325ZM86.207 28V22.46C86.207 21.9533 86.047 21.5467 85.727 21.24C85.4204 20.92 85.027 20.76 84.547 20.76C84.2137 20.76 83.9204 20.8333 83.667 20.98C83.4137 21.1133 83.2137 21.3133 83.067 21.58C82.9204 21.8333 82.847 22.1267 82.847 22.46L81.667 21.88C81.667 21.12 81.8337 20.4533 82.167 19.88C82.5004 19.3067 82.9604 18.8667 83.547 18.56C84.147 18.24 84.8204 18.08 85.567 18.08C86.287 18.08 86.9204 18.2533 87.467 18.6C88.027 18.9333 88.467 19.38 88.787 19.94C89.107 20.5 89.267 21.1133 89.267 21.78V28H86.207ZM79.787 28V18.28H82.847V28H79.787ZM97.4523 28L94.0523 22.96L97.4323 18.28H100.852L96.7723 23.54L96.8723 22.28L101.052 28H97.4523ZM91.2323 28V13.48H94.2923V28H91.2323ZM106.239 28V13.88H109.379V28H106.239ZM118.238 28V22.46C118.238 21.9533 118.078 21.5467 117.758 21.24C117.452 20.92 117.058 20.76 116.578 20.76C116.245 20.76 115.952 20.8333 115.698 20.98C115.445 21.1133 115.245 21.3133 115.098 21.58C114.952 21.8333 114.878 22.1267 114.878 22.46L113.698 21.88C113.698 21.12 113.865 20.4533 114.198 19.88C114.532 19.3067 114.992 18.8667 115.578 18.56C116.178 18.24 116.852 18.08 117.598 18.08C118.318 18.08 118.952 18.2533 119.498 18.6C120.058 18.9333 120.498 19.38 120.818 19.94C121.138 20.5 121.298 21.1133 121.298 21.78V28H118.238ZM111.818 28V18.28H114.878V28H111.818ZM127.404 28.2C126.484 28.2 125.664 27.98 124.944 27.54C124.237 27.1 123.677 26.5 123.264 25.74C122.864 24.98 122.664 24.1133 122.664 23.14C122.664 22.1667 122.864 21.3 123.264 20.54C123.677 19.78 124.237 19.18 124.944 18.74C125.664 18.3 126.484 18.08 127.404 18.08C128.07 18.08 128.67 18.2067 129.204 18.46C129.75 18.7133 130.197 19.0667 130.544 19.52C130.904 19.96 131.104 20.4667 131.144 21.04V25.14C131.104 25.7133 130.91 26.2333 130.564 26.7C130.217 27.1533 129.77 27.52 129.224 27.8C128.677 28.0667 128.07 28.2 127.404 28.2ZM127.944 25.44C128.384 25.44 128.764 25.3467 129.084 25.16C129.404 24.96 129.657 24.6867 129.844 24.34C130.03 23.9933 130.124 23.5933 130.124 23.14C130.124 22.6867 130.03 22.2933 129.844 21.96C129.67 21.6133 129.417 21.34 129.084 21.14C128.764 20.94 128.39 20.84 127.964 20.84C127.537 20.84 127.157 20.94 126.824 21.14C126.504 21.34 126.244 21.6133 126.044 21.96C125.857 22.3067 125.764 22.7 125.764 23.14C125.764 23.58 125.857 23.9733 126.044 24.32C126.23 24.6667 126.49 24.94 126.824 25.14C127.157 25.34 127.53 25.44 127.944 25.44ZM133.004 28H130.004V25.38L130.464 23.02L129.944 20.66V13.48H133.004V28ZM139.838 28.22C138.838 28.22 137.931 28 137.118 27.56C136.318 27.1067 135.685 26.4933 135.218 25.72C134.751 24.9467 134.518 24.08 134.518 23.12C134.518 22.16 134.751 21.3 135.218 20.54C135.685 19.78 136.318 19.18 137.118 18.74C137.918 18.2867 138.825 18.06 139.838 18.06C140.851 18.06 141.758 18.28 142.558 18.72C143.358 19.16 143.991 19.7667 144.458 20.54C144.925 21.3 145.158 22.16 145.158 23.12C145.158 24.08 144.925 24.9467 144.458 25.72C143.991 26.4933 143.358 27.1067 142.558 27.56C141.758 28 140.851 28.22 139.838 28.22ZM139.838 25.44C140.278 25.44 140.665 25.3467 140.998 25.16C141.331 24.96 141.585 24.6867 141.758 24.34C141.945 23.98 142.038 23.5733 142.038 23.12C142.038 22.6667 141.945 22.2733 141.758 21.94C141.571 21.5933 141.311 21.3267 140.978 21.14C140.658 20.94 140.278 20.84 139.838 20.84C139.411 20.84 139.031 20.94 138.698 21.14C138.365 21.3267 138.105 21.5933 137.918 21.94C137.731 22.2867 137.638 22.6867 137.638 23.14C137.638 23.58 137.731 23.98 137.918 24.34C138.105 24.6867 138.365 24.96 138.698 25.16C139.031 25.3467 139.411 25.44 139.838 25.44ZM153.102 28V22.46C153.102 21.9533 152.942 21.5467 152.622 21.24C152.315 20.92 151.922 20.76 151.442 20.76C151.108 20.76 150.815 20.8333 150.562 20.98C150.308 21.1133 150.108 21.3133 149.962 21.58C149.815 21.8333 149.742 22.1267 149.742 22.46L148.562 21.88C148.562 21.12 148.728 20.4533 149.062 19.88C149.395 19.3067 149.855 18.8667 150.442 18.56C151.042 18.24 151.715 18.08 152.462 18.08C153.182 18.08 153.815 18.2533 154.362 18.6C154.922 18.9333 155.362 19.38 155.682 19.94C156.002 20.5 156.162 21.1133 156.162 21.78V28H153.102ZM146.682 28V18.28H149.742V28H146.682ZM162.927 28.22C161.874 28.22 160.934 28.0067 160.107 27.58C159.294 27.14 158.654 26.5333 158.187 25.76C157.72 24.9867 157.487 24.1133 157.487 23.14C157.487 22.1667 157.714 21.3 158.167 20.54C158.634 19.7667 159.26 19.16 160.047 18.72C160.834 18.28 161.72 18.06 162.707 18.06C163.667 18.06 164.514 18.2667 165.247 18.68C165.98 19.0933 166.554 19.6667 166.967 20.4C167.394 21.1333 167.607 21.9733 167.607 22.92C167.607 23.0933 167.594 23.28 167.567 23.48C167.554 23.6667 167.52 23.8867 167.467 24.14L159.087 24.16V22.06L166.167 22.04L164.847 22.92C164.834 22.36 164.747 21.9 164.587 21.54C164.427 21.1667 164.187 20.8867 163.867 20.7C163.56 20.5 163.18 20.4 162.727 20.4C162.247 20.4 161.827 20.5133 161.467 20.74C161.12 20.9533 160.847 21.26 160.647 21.66C160.46 22.06 160.367 22.5467 160.367 23.12C160.367 23.6933 160.467 24.1867 160.667 24.6C160.88 25 161.174 25.3133 161.547 25.54C161.934 25.7533 162.387 25.86 162.907 25.86C163.387 25.86 163.82 25.78 164.207 25.62C164.594 25.4467 164.934 25.1933 165.227 24.86L166.907 26.54C166.427 27.1 165.847 27.52 165.167 27.8C164.487 28.08 163.74 28.22 162.927 28.22ZM172.624 28.24C172.051 28.24 171.484 28.1667 170.924 28.02C170.377 27.8733 169.864 27.6667 169.384 27.4C168.917 27.12 168.517 26.8 168.184 26.44L169.924 24.68C170.244 25.0267 170.624 25.3 171.064 25.5C171.504 25.6867 171.984 25.78 172.504 25.78C172.864 25.78 173.137 25.7267 173.324 25.62C173.524 25.5133 173.624 25.3667 173.624 25.18C173.624 24.94 173.504 24.76 173.264 24.64C173.037 24.5067 172.744 24.3933 172.384 24.3C172.024 24.1933 171.644 24.08 171.244 23.96C170.844 23.84 170.464 23.6733 170.104 23.46C169.744 23.2467 169.451 22.9533 169.224 22.58C168.997 22.1933 168.884 21.7067 168.884 21.12C168.884 20.4933 169.044 19.9533 169.364 19.5C169.684 19.0333 170.137 18.6667 170.724 18.4C171.311 18.1333 171.997 18 172.784 18C173.611 18 174.371 18.1467 175.064 18.44C175.771 18.72 176.344 19.14 176.784 19.7L175.044 21.46C174.737 21.1 174.391 20.8467 174.004 20.7C173.631 20.5533 173.264 20.48 172.904 20.48C172.557 20.48 172.297 20.5333 172.124 20.64C171.951 20.7333 171.864 20.8733 171.864 21.06C171.864 21.26 171.977 21.42 172.204 21.54C172.431 21.66 172.724 21.7667 173.084 21.86C173.444 21.9533 173.824 22.0667 174.224 22.2C174.624 22.3333 175.004 22.5133 175.364 22.74C175.724 22.9667 176.017 23.2733 176.244 23.66C176.471 24.0333 176.584 24.5267 176.584 25.14C176.584 26.0867 176.224 26.84 175.504 27.4C174.797 27.96 173.837 28.24 172.624 28.24ZM178.244 28V18.28H181.304V28H178.244ZM179.784 16.94C179.304 16.94 178.904 16.78 178.584 16.46C178.277 16.1267 178.124 15.7267 178.124 15.26C178.124 14.78 178.277 14.38 178.584 14.06C178.904 13.74 179.304 13.58 179.784 13.58C180.264 13.58 180.657 13.74 180.964 14.06C181.271 14.38 181.424 14.78 181.424 15.26C181.424 15.7267 181.271 16.1267 180.964 16.46C180.657 16.78 180.264 16.94 179.784 16.94ZM187.519 28.2C186.626 28.2 185.826 27.98 185.119 27.54C184.426 27.1 183.872 26.5 183.459 25.74C183.059 24.98 182.859 24.1133 182.859 23.14C182.859 22.1667 183.059 21.3 183.459 20.54C183.872 19.78 184.426 19.18 185.119 18.74C185.826 18.3 186.626 18.08 187.519 18.08C188.172 18.08 188.759 18.2067 189.279 18.46C189.812 18.7133 190.246 19.0667 190.579 19.52C190.912 19.96 191.099 20.4667 191.139 21.04V25.24C191.099 25.8133 190.912 26.3267 190.579 26.78C190.259 27.22 189.832 27.5667 189.299 27.82C188.766 28.0733 188.172 28.2 187.519 28.2ZM188.139 25.44C188.792 25.44 189.319 25.2267 189.719 24.8C190.119 24.36 190.319 23.8067 190.319 23.14C190.319 22.6867 190.226 22.2867 190.039 21.94C189.866 21.5933 189.612 21.3267 189.279 21.14C188.959 20.94 188.586 20.84 188.159 20.84C187.732 20.84 187.352 20.94 187.019 21.14C186.699 21.3267 186.439 21.5933 186.239 21.94C186.052 22.2867 185.959 22.6867 185.959 23.14C185.959 23.58 186.052 23.9733 186.239 24.32C186.426 24.6667 186.686 24.94 187.019 25.14C187.352 25.34 187.726 25.44 188.139 25.44ZM190.199 28V25.38L190.659 23.02L190.199 20.66V18.28H193.199V28H190.199Z" fill="#0C1A49"/>
</svg>
