<svg width="76" height="77" viewBox="0 0 76 77" fill="none" xmlns="http://www.w3.org/2000/svg">
<path opacity="0.4" d="M52.7704 70.4487H23.2271C18.6464 70.7334 14.148 69.1454 10.7632 66.0516C7.66933 62.6636 6.08128 58.1652 6.36599 53.5878V24.0416C6.08128 19.4642 7.66616 14.9658 10.76 11.5778C14.148 8.48401 18.6464 6.89598 23.2271 7.18069H52.7704C57.3447 6.89598 61.8399 8.48085 65.2248 11.5747C68.3155 14.9658 69.9067 19.461 69.6346 24.0416V53.5878C69.9162 58.1652 68.3313 62.6636 65.2375 66.0516C61.8494 69.1454 57.351 70.7334 52.7704 70.4487Z" fill="#0C1A49"/>
<path d="M54.006 33.7403L33.2556 54.5939C32.1764 55.6443 30.7581 56.2313 29.2782 56.2313H22.0325C21.6316 56.2313 21.2616 56.0769 20.9841 55.7988C20.7066 55.5208 20.5833 55.15 20.5833 54.7484L20.7683 47.4265C20.7991 45.9744 21.385 44.6151 22.4024 43.5956L37.1097 28.859C37.3563 28.6118 37.788 28.6118 38.0347 28.859L43.193 33.9967C43.5322 34.3335 44.0255 34.5528 44.5496 34.5528C45.6904 34.5528 46.5846 33.626 46.5846 32.5138C46.5846 31.9577 46.3688 31.4634 46.0296 31.0926C45.9371 30.9691 41.0254 26.0785 41.0254 26.0785C40.7171 25.7696 40.7171 25.2444 41.0254 24.9354L43.0912 22.8346C45.0029 20.9191 48.0862 20.9191 49.9978 22.8346L54.006 26.8509C55.8868 28.7354 55.8868 31.8248 54.006 33.7403Z" fill="#0C1A49"/>
</svg>
