<svg width="50" height="50" viewBox="0 0 50 50" fill="none" xmlns="http://www.w3.org/2000/svg">
<path opacity="0.4" d="M37.0072 8.07383H29.7722C27.9697 8.08574 26.2585 7.28399 25.1164 5.89246L22.7338 2.59858C21.6108 1.19485 19.8996 0.389326 18.0999 0.417204H12.9851C3.80461 0.417204 0.416591 5.8052 0.416591 14.967V24.8704C0.405168 25.9595 49.5725 25.9581 49.5757 24.8704V21.991C49.6194 12.8292 46.3188 8.07383 37.0072 8.07383Z" fill="#0C1A49"/>
<path fill-rule="evenodd" clip-rule="evenodd" d="M46.7122 11.5858C47.4987 12.5054 48.1066 13.5632 48.5046 14.7051C49.2878 17.0521 49.6504 19.5184 49.5757 21.9909V34.9047C49.5725 35.9924 49.4922 37.0785 49.3352 38.1549C49.0363 40.0545 48.368 41.8775 47.368 43.5211C46.9083 44.315 46.3502 45.0479 45.7068 45.7025C42.7941 48.3757 38.9263 49.7672 34.9744 49.5635H14.996C11.0378 49.7657 7.16374 48.3748 4.24175 45.7025C3.60601 45.0467 3.05526 44.3138 2.60239 43.5211C1.60824 41.8787 0.954176 40.054 0.678866 38.1549C0.503807 37.0803 0.416089 35.9934 0.416567 34.9047V21.9909C0.416139 20.9124 0.474514 19.8347 0.591433 18.7625C0.616019 18.5744 0.652897 18.3893 0.689392 18.2062C0.750234 17.9009 0.810015 17.6009 0.810015 17.301C1.0319 16.0071 1.43667 14.7512 2.01222 13.5708C3.71716 9.92793 7.21447 8.07376 12.9413 8.07376H36.9853C40.1929 7.82568 43.3766 8.79131 45.9035 10.7787C46.1945 11.0254 46.465 11.2954 46.7122 11.5858ZM12.6353 33.705H37.3788H37.4225C37.9654 33.7286 38.4952 33.5343 38.8936 33.1654C39.2919 32.7965 39.5257 32.2838 39.5427 31.7418C39.5734 31.2653 39.4166 30.7957 39.1056 30.433C38.7478 29.9455 38.181 29.6545 37.5755 29.6477H12.6353C11.5126 29.6477 10.6025 30.5559 10.6025 31.6763C10.6025 32.7968 11.5126 33.705 12.6353 33.705Z" fill="#0C1A49"/>
</svg>
