<svg width="430" height="300" viewBox="0 0 430 300" fill="none" xmlns="http://www.w3.org/2000/svg">
<g clip-path="url(#clip0_170_549)">
<path d="M339.675 299.173C292.358 299.173 254 296.26 254 292.667C254 289.073 292.358 286.16 339.675 286.16C386.992 286.16 425.35 289.073 425.35 292.667C425.35 296.26 386.992 299.173 339.675 299.173Z" fill="#E6E6E6"/>
<path d="M383.861 66.3813C368.951 60.0396 350.38 64.0577 332.244 66.8463C332.075 63.4692 330.03 59.3591 332.173 57.0031C334.776 54.1407 334.536 51.1331 332.97 48.1082C328.964 40.3731 334.703 32.1425 340.498 25.2989C341.804 23.7598 343.455 22.5506 345.317 21.7693C347.178 20.9881 349.197 20.6569 351.211 20.8027L361.946 21.5695C364.558 21.7561 367.051 22.736 369.091 24.3781C371.131 26.0203 372.621 28.2463 373.362 30.7584C375.925 34.2446 377.297 37.7211 376.433 41.1796C380.272 43.8034 380.918 46.9706 379.192 50.5411C377.729 52.7892 377.745 54.9775 379.259 57.1053C381.247 59.818 382.77 62.8428 383.765 66.0556L383.861 66.3813Z" fill="#2F2E41"/>
<path d="M331.811 258.631H27.9272C25.2248 258.631 22.6331 257.557 20.7222 255.646C18.8113 253.735 17.7378 251.144 17.7378 248.441C127.896 235.639 235.983 235.639 342 248.441C342 251.144 340.927 253.735 339.016 255.646C337.105 257.557 334.513 258.631 331.811 258.631Z" fill="#2F2E41"/>
<path d="M342 249.041L17.7378 248.441L55.3187 185.207L55.4985 184.907V45.5466C55.4983 43.855 55.8314 42.18 56.4787 40.6172C57.1259 39.0544 58.0747 37.6344 59.2708 36.4383C60.4669 35.2422 61.8869 34.2934 63.4497 33.6462C65.0125 32.9989 66.6875 32.6658 68.379 32.666H289.561C291.252 32.6658 292.927 32.9989 294.49 33.6462C296.053 34.2934 297.473 35.2422 298.669 36.4383C299.865 37.6344 300.814 39.0544 301.461 40.6172C302.108 42.18 302.441 43.855 302.441 45.5466V185.866L342 249.041Z" fill="#3F3D56"/>
<path d="M68.085 41.6566C66.9727 41.6579 65.9062 42.1003 65.1196 42.8869C64.3331 43.6734 63.8907 44.7399 63.8894 45.8522V172.92C63.8907 174.032 64.3331 175.099 65.1197 175.885C65.9063 176.672 66.9727 177.114 68.085 177.116H291.652C292.765 177.114 293.831 176.672 294.617 175.885C295.404 175.099 295.847 174.032 295.848 172.92V45.8522C295.847 44.7399 295.404 43.6735 294.618 42.8869C293.831 42.1004 292.765 41.6579 291.652 41.6566H68.085Z" fill="white"/>
<path d="M69.0222 193.898C68.6784 193.899 68.342 193.997 68.0526 194.183C67.7632 194.368 67.5327 194.633 67.3885 194.945L55.8087 220.118C55.6826 220.392 55.6275 220.694 55.6484 220.994C55.6692 221.295 55.7654 221.586 55.9281 221.84C56.0907 222.094 56.3146 222.303 56.5792 222.448C56.8438 222.592 57.1405 222.668 57.442 222.668H300.96C301.266 222.668 301.568 222.59 301.835 222.44C302.103 222.291 302.328 222.076 302.489 221.815C302.65 221.554 302.742 221.257 302.756 220.951C302.77 220.644 302.705 220.34 302.568 220.066L289.981 194.892C289.832 194.593 289.603 194.341 289.319 194.165C289.035 193.99 288.707 193.897 288.373 193.898H69.0222Z" fill="#2F2E41"/>
<path d="M178.97 39.5588C180.46 39.5588 181.667 38.3512 181.667 36.8616C181.667 35.372 180.46 34.1644 178.97 34.1644C177.48 34.1644 176.273 35.372 176.273 36.8616C176.273 38.3512 177.48 39.5588 178.97 39.5588Z" fill="white"/>
<path d="M155.034 227.463C154.639 227.464 154.255 227.594 153.941 227.835C153.627 228.075 153.401 228.412 153.298 228.794L150.393 239.582C150.321 239.849 150.312 240.128 150.365 240.399C150.419 240.67 150.534 240.925 150.702 241.144C150.87 241.363 151.086 241.54 151.333 241.662C151.581 241.785 151.853 241.848 152.129 241.848H207.37C207.657 241.848 207.939 241.78 208.194 241.648C208.449 241.517 208.668 241.326 208.835 241.093C209.001 240.859 209.109 240.589 209.149 240.306C209.19 240.022 209.162 239.733 209.069 239.462L205.334 228.673C205.212 228.32 204.982 228.013 204.678 227.797C204.373 227.58 204.009 227.463 203.635 227.463H155.034Z" fill="#2F2E41"/>
<path d="M303.441 182.81V185.207H56.3184L56.5043 184.908V182.81H303.441Z" fill="#2F2E41"/>
<path d="M51.9563 89.9126C75.1281 89.9126 93.9126 71.1281 93.9126 47.9563C93.9126 24.7845 75.1281 6 51.9563 6C28.7845 6 10 24.7845 10 47.9563C10 71.1281 28.7845 89.9126 51.9563 89.9126Z" fill="#0C1A49"/>
<path d="M306.456 112.965L338.396 129.946L338.8 115.795C328.375 114.055 318.457 111.025 309.286 106.092L305.945 97.8387C305.581 96.9394 304.99 96.1502 304.229 95.5487C303.467 94.9471 302.563 94.5537 301.604 94.4073C300.645 94.2608 299.664 94.3663 298.758 94.7133C297.852 95.0603 297.052 95.637 296.436 96.3867C295.535 97.4835 295.085 98.8818 295.176 100.298C295.268 101.715 295.894 103.044 296.929 104.015L306.456 112.965Z" fill="#FFB8B8"/>
<path d="M384.498 211.005C384.731 210.151 384.78 209.256 384.643 208.381C384.506 207.506 384.185 206.67 383.701 205.928L376.685 195.16C375.025 192.614 372.479 190.774 369.54 189.998C366.601 189.223 363.478 189.567 360.778 190.964C363.727 195.983 363.316 200.386 359.76 204.213C365.28 206.908 370.382 210.386 374.908 214.54C375.734 215.103 376.683 215.461 377.676 215.583C378.668 215.705 379.675 215.589 380.614 215.243C381.552 214.897 382.394 214.332 383.069 213.595C383.745 212.858 384.235 211.97 384.498 211.005Z" fill="#2F2E41"/>
<path d="M305.001 196.926C306.063 198.696 307.562 200.163 309.354 201.186C311.146 202.21 313.17 202.755 315.234 202.771L361.845 203.124L363.867 191.399L343.248 185.335L360.633 171.993L341.63 149.756L307.117 181.925C305.099 183.805 303.789 186.32 303.404 189.051C303.019 191.782 303.583 194.562 305.001 196.926Z" fill="#2F2E41"/>
<path d="M369.123 277.112H380.039C389.84 209.929 399.817 142.558 370.336 117.412L335.566 123.072L340.013 152.586L359.42 174.823L369.123 277.112Z" fill="#2F2E41"/>
<path d="M359.527 292.33C360.381 292.563 361.276 292.613 362.151 292.476C363.026 292.338 363.862 292.018 364.604 291.534L376.457 289.941C379.004 288.281 380.843 285.735 381.619 282.796C382.395 279.857 382.051 276.734 380.654 274.034C375.635 276.983 371.232 276.571 367.405 273.015C364.702 278.474 360.247 278.141 355.993 282.74C355.43 283.567 355.072 284.515 354.95 285.508C354.827 286.5 354.944 287.507 355.289 288.446C355.635 289.384 356.2 290.226 356.937 290.902C357.674 291.578 358.562 292.067 359.527 292.33Z" fill="#2F2E41"/>
<path d="M343.247 72.5346L363.462 67.683C360.105 60.8107 359.828 53.1637 361.441 45.0421L347.694 44.6378C347.264 54.7373 345.961 64.1728 343.247 72.5346Z" fill="#FFB8B8"/>
<path d="M337.691 135.246C352.407 145.273 362.805 135.589 370.74 120.647C369.637 111.503 371.422 100.562 374.729 88.6724C376.199 83.4285 375.65 77.8238 373.19 72.9648C370.73 68.1059 366.538 64.3459 361.441 62.4271L344.056 69.7045C329.294 81.7372 326.388 94.7709 331.927 108.518L337.691 135.246Z" fill="#0C1A49"/>
<path d="M380.039 82.6422L396.211 91.1325L367.506 108.113L363.511 117.966C363.245 118.623 363.115 119.328 363.13 120.038C363.145 120.747 363.304 121.446 363.597 122.092C363.891 122.738 364.313 123.317 364.838 123.795C365.363 124.272 365.98 124.637 366.651 124.869C367.413 125.132 368.226 125.215 369.026 125.111C369.826 125.007 370.591 124.72 371.261 124.271C371.932 123.822 372.489 123.224 372.889 122.524C373.29 121.824 373.523 121.041 373.571 120.236L373.974 113.369L410.459 101.329C411.688 100.924 412.809 100.244 413.736 99.3406C414.664 98.4377 415.374 97.3355 415.812 96.1176C416.451 94.3422 416.484 92.4051 415.905 90.6094C415.325 88.8136 414.167 87.2605 412.611 86.1931L383.273 66.0658L380.039 82.6422Z" fill="#FFB8B8"/>
<path d="M363.867 84.2594C370.612 81.3036 376.745 84.5145 384.486 87.0895L385.699 65.6615C378.012 61.5645 370.683 60.4598 363.867 63.64L363.867 84.2594Z" fill="#0C1A49"/>
<path d="M355.798 55.2518C348.67 55.2518 342.892 49.4733 342.892 42.3452C342.892 35.2171 348.67 29.4387 355.798 29.4387C362.926 29.4387 368.705 35.2171 368.705 42.3452C368.705 49.4733 362.926 55.2518 355.798 55.2518Z" fill="#FFB8B8"/>
<path d="M340.358 40.7168C353.137 41.9683 362.874 39.8784 369.097 33.9278V29.1356H341.443L340.358 40.7168Z" fill="#2F2E41"/>
<path d="M222.659 90.1642H136.218C132.921 90.1642 130.238 87.4812 130.238 84.1846C130.238 80.8881 132.921 78.2051 136.218 78.2051H222.659C225.956 78.2051 228.639 80.8881 228.639 84.1846C228.639 87.4812 225.956 90.1642 222.659 90.1642ZM136.218 78.9442C133.328 78.9442 130.977 81.2946 130.977 84.1846C130.977 87.0746 133.328 89.4251 136.218 89.4251H222.659C225.549 89.4251 227.9 87.0746 227.9 84.1846C227.9 81.2946 225.549 78.9442 222.659 78.9442H136.218Z" fill="#E2E3E4"/>
<path d="M222.659 160.142H136.218C133.021 160.142 130.423 157.544 130.423 154.347C130.423 151.15 133.021 148.552 136.218 148.552H222.659C225.856 148.552 228.454 151.15 228.454 154.347C228.454 157.544 225.856 160.142 222.659 160.142Z" fill="#0C1A49"/>
<path d="M194.332 66.5896H134.795C131.598 66.5896 129 63.9915 129 60.7948C129 57.598 131.598 55 134.795 55H194.332C197.529 55 200.127 57.598 200.127 60.7948C200.127 63.9915 197.529 66.5896 194.332 66.5896Z" fill="#E2E3E4"/>
<path d="M222.659 113.55H136.218C132.921 113.55 130.238 110.867 130.238 107.571C130.238 104.274 132.921 101.591 136.218 101.591H222.659C225.956 101.591 228.639 104.274 228.639 107.571C228.639 110.867 225.956 113.55 222.659 113.55ZM136.218 102.33C133.328 102.33 130.977 104.681 130.977 107.571C130.977 110.461 133.328 112.811 136.218 112.811H222.659C225.549 112.811 227.9 110.461 227.9 107.571C227.9 104.681 225.549 102.33 222.659 102.33H136.218Z" fill="#E2E3E4"/>
<path d="M222.659 136.94H136.218C132.921 136.94 130.238 134.257 130.238 130.961C130.238 127.664 132.921 124.981 136.218 124.981H222.659C225.956 124.981 228.639 127.664 228.639 130.961C228.639 134.257 225.956 136.94 222.659 136.94ZM136.218 125.72C133.328 125.72 130.977 128.071 130.977 130.961C130.977 133.851 133.328 136.201 136.218 136.201H222.659C225.549 136.201 227.9 133.851 227.9 130.961C227.9 128.071 225.549 125.72 222.659 125.72H136.218Z" fill="#E2E3E4"/>
<path d="M133.246 73.9107H155.901C156.44 73.9107 156.88 74.3468 156.88 74.8901C156.88 75.4296 156.44 75.8694 155.901 75.8694H133.246C132.707 75.8694 132.267 75.4333 132.267 74.8901C132.267 74.3505 132.707 73.9107 133.246 73.9107Z" fill="#E2E3E4"/>
<path d="M133.246 97.8512H155.901C156.44 97.8512 156.88 98.2873 156.88 98.8269C156.88 99.3664 156.44 99.8062 155.901 99.8062H133.246C132.707 99.8062 132.267 99.3701 132.267 98.8305C132.267 98.291 132.707 97.8512 133.246 97.8512Z" fill="#E2E3E4"/>
<path d="M133.246 121.795H155.901C156.44 121.795 156.88 122.231 156.88 122.775C156.88 123.314 156.44 123.75 155.901 123.75H133.246C132.707 123.75 132.267 123.314 132.267 122.771C132.267 122.231 132.707 121.795 133.246 121.795Z" fill="#E2E3E4"/>
<path d="M57.7882 41.7895C57.7882 44.8164 55.3344 47.2702 52.3075 47.2702C49.2806 47.2702 46.8268 44.8164 46.8268 41.7895C46.8268 38.7626 49.2806 36.3088 52.3075 36.3088C55.3344 36.3088 57.7882 38.7626 57.7882 41.7895Z" fill="white"/>
<path d="M43.6139 54.8927C43.6124 54.5075 43.6986 54.1269 43.8658 53.7798C44.3908 52.7299 45.8712 52.1734 47.0997 51.9214C47.9856 51.7324 48.8838 51.6061 49.7875 51.5434C51.4607 51.3965 53.1435 51.3965 54.8167 51.5434C55.7204 51.6068 56.6185 51.7331 57.5046 51.9214C58.733 52.1734 60.2134 52.6774 60.7384 53.7798C61.0748 54.4873 61.0748 55.3087 60.7384 56.0162C60.2134 57.1186 58.733 57.6226 57.5046 57.8641C56.6197 58.061 55.7212 58.1908 54.8167 58.2526C53.4549 58.368 52.0867 58.389 50.7219 58.3155C50.407 58.3155 50.1025 58.3155 49.7875 58.2526C48.8864 58.1916 47.9914 58.0617 47.1102 57.8641C45.8712 57.6226 44.4013 57.1186 43.8658 56.0162C43.6994 55.6651 43.6133 55.2813 43.6139 54.8927Z" fill="white"/>
<path d="M40.2197 47.1095H26.408M40.2197 47.1095L36.8614 43.7647M40.2197 47.1095L36.8614 50.4543M40.1727 39.0958V37.2577C40.1727 33.2486 43.5713 30 47.7676 30H57.8337C62.0176 30 65.408 33.2408 65.408 37.24V59.1865C65.408 63.1956 62.0073 66.4462 57.8131 66.4462H47.7449C43.5631 66.4462 40.1727 63.2035 40.1727 59.2062V57.3504M57.7882 41.7895C57.7882 44.8164 55.3344 47.2702 52.3075 47.2702C49.2806 47.2702 46.8268 44.8164 46.8268 41.7895C46.8268 38.7626 49.2806 36.3088 52.3075 36.3088C55.3344 36.3088 57.7882 38.7626 57.7882 41.7895ZM43.6139 54.8927C43.6124 54.5075 43.6986 54.1269 43.8658 53.7798C44.3908 52.7299 45.8712 52.1734 47.0997 51.9214C47.9856 51.7324 48.8838 51.6061 49.7875 51.5434C51.4607 51.3965 53.1435 51.3965 54.8167 51.5434C55.7204 51.6068 56.6185 51.7331 57.5046 51.9214C58.733 52.1734 60.2134 52.6774 60.7384 53.7798C61.0748 54.4873 61.0748 55.3087 60.7384 56.0162C60.2134 57.1186 58.733 57.6226 57.5046 57.8641C56.6197 58.061 55.7212 58.1908 54.8167 58.2526C53.4549 58.368 52.0867 58.389 50.7219 58.3155C50.407 58.3155 50.1025 58.3155 49.7875 58.2526C48.8864 58.1916 47.9914 58.0617 47.1102 57.8641C45.8712 57.6226 44.4013 57.1186 43.8658 56.0162C43.6994 55.6651 43.6133 55.2813 43.6139 54.8927Z" stroke="white" stroke-width="1.72059" stroke-linecap="round" stroke-linejoin="round"/>
</g>
<defs>
<clipPath id="clip0_170_549">
<rect width="430" height="299.173" fill="white"/>
</clipPath>
</defs>
</svg>
