<svg width="82" height="82" viewBox="0 0 82 82" fill="none" xmlns="http://www.w3.org/2000/svg">
<path d="M31.9435 50.7639C18.4005 50.7639 6.83333 52.856 6.83333 61.2177C6.83333 69.5859 18.327 71.75 31.9435 71.75C45.4865 71.75 57.0538 69.6579 57.0538 61.2962C57.0538 52.928 45.5601 50.7639 31.9435 50.7639Z" fill="#0C1A49"/>
<path opacity="0.4" d="M31.9436 42.7931C41.1673 42.7931 48.5589 35.5544 48.5589 26.5216C48.5589 17.4887 41.1673 10.25 31.9436 10.25C22.7232 10.25 15.3282 17.4887 15.3282 26.5216C15.3282 35.5544 22.7232 42.7931 31.9436 42.7931Z" fill="#0C1A49"/>
<path opacity="0.4" d="M55.2592 26.8166C55.2592 31.4165 53.8484 35.7086 51.3745 39.274C51.117 39.6406 51.3444 40.135 51.7924 40.2136C52.4142 40.3151 53.0527 40.3773 53.7046 40.3904C60.1903 40.5574 66.0107 36.4682 67.6187 30.3099C70.0024 21.1723 63.0085 12.9677 54.0991 12.9677C53.1329 12.9677 52.2069 13.0659 51.3043 13.246C51.1806 13.2722 51.0468 13.3311 50.98 13.4359C50.8931 13.5701 50.9566 13.7436 51.0435 13.8582C53.7213 17.5349 55.2592 22.0104 55.2592 26.8166Z" fill="#0C1A49"/>
<path d="M74.4119 51.8286C73.2251 49.3502 70.3601 47.651 66.0006 46.8162C63.9446 46.3251 58.375 45.6277 53.1965 45.726C53.1196 45.7358 53.0761 45.7882 53.0694 45.8209C53.0594 45.8733 53.0828 45.9519 53.1831 46.0075C55.5768 47.1665 64.8272 52.2084 63.6638 62.8422C63.6136 63.3071 63.9914 63.7 64.4628 63.6345C66.7395 63.3169 72.5966 62.0827 74.4119 58.2456C75.4182 56.2157 75.4182 53.8585 74.4119 51.8286Z" fill="#0C1A49"/>
</svg>
